<svg enable-background="new 0 0 462 462" viewBox="0 0 462 462" xmlns="http://www.w3.org/2000/svg" xmlns:xlink="http://www.w3.org/1999/xlink"><linearGradient id="a" gradientUnits="userSpaceOnUse" x1="82.803" x2="410.6569" y1="372.4111" y2="59.5695"><stop offset="0" stop-color="#422e82"/><stop offset=".3973" stop-color="#6b4287"/><stop offset="1" stop-color="#af648f"/></linearGradient><path d="m55 0h352c30.4 0 55 24.6 55 55v352c0 30.4-24.6 55-55 55h-352c-30.4 0-55-24.6-55-55v-352c0-30.4 24.6-55 55-55z" fill="url(#a)"/><g fill="#e7dce8"><path d="m401 233.9-56 2.5 9.8 15.5-93.5 59.7-92.7-38.9-107.6 44.7 7.4 17.9 100.2-41.7 94.6 39.7 102.1-65.2 9.8 15.5z"/><path d="m100.8 291.2 67.8-28.3 3.3 1.3v-40.2h-71.1zm155.3-164.5v173l5.4 2.2 65.8-42v-133.2zm-77.7 140.4 71.1 29.9v-121.6h-71.1z"/></g></svg>