<?xml version="1.0" encoding="utf-8"?>
<svg viewBox="0 0 630 101.88" xmlns="http://www.w3.org/2000/svg"><g fill="#636eb9"><path d="m235.33 89.2-12.02-17.2a19.23 19.23 0 0 1 -2.27.09h-13.28v17.11h-10.93v-58.84h24.17c15.46 0 25.05 7.9 25.05 20.93 0 8.91-4.54 15.47-12.53 18.58l13.58 19.33zm-14.8-49.59h-12.77v23.45h12.77c9.59 0 14.54-4.37 14.54-11.77s-4.95-11.68-14.54-11.68z"/><path d="m294.41 62.89v26.31h-9.92v-5.46c-2.52 3.87-7.4 6.05-14.12 6.05-10.25 0-16.73-5.63-16.73-13.45 0-7.48 5.05-13.36 18.66-13.36h11.6v-.68c0-6.13-3.7-9.75-11.18-9.75-5 0-10.25 1.68-13.61 4.46l-4.11-7.65c4.79-3.7 11.77-5.55 19-5.55 12.93 0 20.41 6.19 20.41 19.08zm-10.51 12.28v-5.17h-10.84c-7.14 0-9.08 2.69-9.08 6 0 3.78 3.2 6.22 8.58 6.22 5.12-.08 9.58-2.43 11.34-7.05z"/><path d="m352.07 63.48v25.72h-10.51v-24.37c0-8-3.95-11.86-10.68-11.86-7.48 0-12.52 4.54-12.52 13.54v22.69h-10.51v-44.88h10v5.8c3.45-4.12 8.92-6.31 15.47-6.31 10.76 0 18.75 6.19 18.75 19.67z"/><path d="m383.75 70-7.82 7.4v11.8h-10.51v-62.37h10.51v37.66l21.77-20.17h12.61l-18.75 18.83 20.51 26.05h-12.77z"/></g><g fill="#090e11"><path d="m473.93 89.2-.08-39-19.34 32.28h-4.87l-19.33-31.78v38.5h-10.43v-58.84h9l23.36 39 22.95-39h9l.08 58.84z"/><path d="m536.71 62.89v26.31h-9.92v-5.46c-2.52 3.87-7.4 6.05-14.12 6.05-10.25 0-16.73-5.63-16.73-13.45 0-7.48 5.06-13.34 18.66-13.34h11.6v-.7c0-6.13-3.7-9.75-11.18-9.75-5 0-10.25 1.68-13.61 4.46l-4.12-7.65c4.79-3.7 11.77-5.55 19-5.55 12.94 0 20.42 6.19 20.42 19.08zm-10.51 12.28v-5.17h-10.84c-7.15 0-9.08 2.69-9.08 6 0 3.78 3.2 6.22 8.58 6.22 5.14-.08 9.58-2.43 11.34-7.05z"/><path d="m577.13 86.76c-2.52 2-6.3 3-10.08 3-9.84 0-15.47-5.21-15.47-15.13v-21.57h-7.4v-8.41h7.4v-10.25h10.51v10.25h12v8.41h-12v21.35c0 4.37 2.18 6.72 6.22 6.72a9.38 9.38 0 0 0 5.88-1.85z"/><path d="m630 63.48v25.72h-10.51v-24.37c0-8-4-11.86-10.67-11.86-7.48 0-12.53 4.54-12.53 13.54v22.69h-10.5v-62.37h10.5v22.7c3.45-3.7 8.75-5.72 15-5.72 10.71 0 18.71 6.19 18.71 19.67z"/><path d="m165.97 52.31-27.36 1.23 4.82 7.55-45.63 29.16-45.25-19.01-52.55 21.89 3.64 8.75 48.89-20.37 46.18 19.4 49.82-31.84 4.83 7.55z"/></g><path d="m19.43 80.31 33.11-13.8 1.62.68v-19.61h-34.73zm75.76-80.31v84.43l2.61 1.1 32.12-20.53v-65zm-37.88 68.52 34.69 14.58v-59.31h-34.69z" fill="#636eb9"/></svg>