<?xml version="1.0" encoding="utf-8"?>
<svg opacity=".7" style="margin-bottom:-7px;width:24px" viewBox="0 0 50 50" xmlns="http://www.w3.org/2000/svg"><path d="m17 2a1.0001 1.0001 0 0 0-0.11133 0.0058594c-2.6982 0.060284-4.8887 2.2822-4.8887 4.9941 0 2.6994 1.9427 5 4.375 5 0.60058 0 1.1422-0.094264 1.625-0.26562v26.266h-1a1.0001 1.0001 0 1 0 0 2c0.55454 0 1 0.44546 1 1s-0.44546 1-1 1h-1a1.0001 1.0001 0 0 0-1 1v4a1.0001 1.0001 0 0 0 1 1h18a1.0001 1.0001 0 0 0 1-1v-4a1.0001 1.0001 0 0 0-1-1h-1c-0.55454 0-1-0.44546-1-1s0.44546-1 1-1a1.0001 1.0001 0 0 0 0.099609-0.003906 1.0001 1.0001 0 0 0-0.099609-1.9961h-1v-26.266c0.48282 0.17136 1.0244 0.26562 1.625 0.26562 2.4323 0 4.375-2.3006 4.375-5 0-2.7153-2.1957-4.939-4.8984-4.9941a1.0001 1.0001 0 0 0-0.10156-0.0058594h-16zm0 2c2.7341 0 4.9319 2.1644 4.9941 4.8828a1.0001 1.0001 0 0 0 0.29492 0.83398 1.0001 1.0001 0 0 0 0.00586 0.0058593 1.0001 1.0001 0 0 0 0.013672 0.013672 1.0001 1.0001 0 0 0 0.84961 0.26367h3.6738a1.0001 1.0001 0 0 0 0.88867-0.29297 1.0001 1.0001 0 0 0 0.001953-0.0019531 1.0001 1.0001 0 0 0 0.00586-0.0058593 1.0001 1.0001 0 0 0 0.007812-0.0078126 1.0001 1.0001 0 0 0 0.26953-0.81641c0.066301-2.7147 2.2627-4.875 4.9941-4.875 1.6685 0 3 1.3315 3 3 0 1.7186-1.3073 3-2.375 3-0.74136 0-1.1462-0.18-1.3477-0.34961-0.20142-0.16961-0.27734-0.34314-0.27734-0.65039 0-0.51089 0.11963-0.67733 0.24805-0.79102 0.12842-0.11369 0.36929-0.20898 0.75195-0.20898a1.0001 1.0001 0 1 0 0-2c-0.72233 0-1.4828 0.18583-2.0781 0.71289s-0.92188 1.361-0.92188 2.2871v29h-10v-29c0-0.92646-0.32831-1.762-0.92383-2.2891s-1.3541-0.71094-2.0762-0.71094a1.0001 1.0001 0 1 0 0 2c0.38297 0 0.62372 0.095499 0.75195 0.20898 0.12824 0.11349 0.24805 0.27948 0.24805 0.79102 0 0.30725-0.07592 0.48078-0.27734 0.65039-0.20142 0.16961-0.6063 0.34961-1.3477 0.34961-1.0677 0-2.375-1.2814-2.375-3 0-1.6685 1.3315-3 3-3zm4.8848 0h6.2305c-1.0756 1.0512-1.8102 2.4444-2.0352 4h-2.1602c-0.22495-1.5556-0.95952-2.9488-2.0352-4zm1.0996 7.9863a1.0001 1.0001 0 0 0-0.98438 1.0137v22a1.0001 1.0001 0 1 0 2 0v-22a1.0001 1.0001 0 0 0-1.0156-1.0137zm4 0a1.0001 1.0001 0 0 0-0.98438 1.0137v22a1.0001 1.0001 0 1 0 2 0v-22a1.0001 1.0001 0 0 0-1.0156-1.0137zm-7.1719 28.014h10.375c-0.11353 0.31492-0.1875 0.64805-0.1875 1a1.0001 1.0001 0 0 0 0.29492 0.70898c0.027814 0.099682 0.066038 0.19467 0.10156 0.29102h-10.793c0.035524-0.096344 0.073748-0.19133 0.10156-0.29102a1.0001 1.0001 0 0 0 0.29492-0.70898c0-0.35195-0.07397-0.68508-0.1875-1zm-2.8125 4h16v2h-16v-2z" style="block-progression:tb;isolation:auto;mix-blend-mode:normal;text-decoration-color:#000;text-decoration-line:none;text-decoration-style:solid;text-indent:0;text-transform:none"></path></svg>