<svg viewBox="0 0 20 23.97" xmlns="http://www.w3.org/2000/svg" width="20" height="20"><path d="m5.89 13.42a1.19 1.19 0 0 0 .78.32v6.86l-6.67-3.13v-.16z" fill="#586c7d"/><path d="m0 9h6.67v2.28a1.2 1.2 0 0 0 -1.11.8l-5.56 3.71z" fill="#41b5e7"/><path d="m12 16.62a1.38 1.38 0 0 0 1.34 1.38v5.71l-6.66-3.12v-6.85a1.19 1.19 0 0 0 .78-.32z" fill="#2c3d48"/><path d="m6.67 4.54h6.67v10.66a1.3 1.3 0 0 0 -.84.29l-4.7-3.32a1.21 1.21 0 0 0 -1.14-.89z" fill="#0097d5"/><path d="m20 10.82v4.87l-2.95 6.61a2.79 2.79 0 0 1 -3.7 1.42v-5.72a1.39 1.39 0 0 0 1.36-1.39 1.31 1.31 0 0 0 0-.28z" fill="#071016"/><path d="m13.34 0h6.66v9.07l-6.06 6.27a1.2 1.2 0 0 0 -.62-.14z" fill="#006faa"/><path d="m5.89 13.42a1.19 1.19 0 0 0 .78.32v6.86l-6.67-3.13v-.16z" fill="#586c7d"/><path d="m0 9h6.67v2.28a1.2 1.2 0 0 0 -1.11.8l-5.56 3.71z" fill="#94a3d3"/><path d="m12 16.62a1.38 1.38 0 0 0 1.34 1.38v5.71l-6.66-3.12v-6.85a1.19 1.19 0 0 0 .78-.32z" fill="#2c3d48"/><path d="m6.67 4.54h6.67v10.66a1.3 1.3 0 0 0 -.84.29l-4.7-3.32a1.21 1.21 0 0 0 -1.14-.89z" fill="#7b8cc6"/><path d="m20 10.82v4.87l-2.95 6.61a2.79 2.79 0 0 1 -3.7 1.42v-5.72a1.39 1.39 0 0 0 1.36-1.39 1.31 1.31 0 0 0 0-.28z" fill="#071016"/><path d="m13.34 0h6.66v9.07l-6.06 6.27a1.2 1.2 0 0 0 -.62-.14z" fill="#656fb4"/></svg>
