<?xml version="1.0" standalone="no"?>
<!DOCTYPE svg PUBLIC "-//W3C//DTD SVG 1.1//EN" "http://www.w3.org/Graphics/SVG/1.1/DTD/svg11.dtd" >
<svg xmlns="http://www.w3.org/2000/svg">
<metadata>Generated by IcoMoon</metadata>
<defs>
<font id="Rank-Math" horiz-adv-x="1024">
<font-face units-per-em="1024" ascent="1024" descent="0" />
<missing-glyph horiz-adv-x="1024" />
<glyph unicode="&#x20;" horiz-adv-x="0" d="" />
<glyph unicode="&#xe900;" glyph-name="rank-math" d="M1024 503.533l-168.827-7.602 29.767-46.545-281.489-179.932-279.273 117.317-324.178-135.137 22.474-53.948 301.658 125.695 284.969-119.689 307.4 196.4 29.767-46.545zM119.91 330.783l204.312 85.133 9.952-4.189v120.974h-214.264zM587.359 826.314v-520.977l16.091-6.649 198.217 126.448v401.177zM353.657 403.438l214.264-90.032v366.136h-214.264z" />
<glyph unicode="&#xe901;" glyph-name="google" d="M984 556.8h-459.2v-136h329.6c-17.6-188.8-171.2-270.4-320-270.4-188.8 0-356.8 147.2-356.8 360 0 204.8 160 360 356.8 360 150.4 0 241.6-97.6 241.6-97.6l92.8 97.6s-124.8 136-340.8 136c-284.8 1.6-502.4-236.8-502.4-494.4 0-249.6 204.8-496 507.2-496 267.2 0 459.2 180.8 459.2 451.2 1.6 56-8 89.6-8 89.6z" />
<glyph unicode="&#xe902;" glyph-name="copy" d="M803.2 75.2h-129.6c-16 0-28.8-12.8-28.8-28.8s12.8-28.8 28.8-28.8h129.6c16 0 28.8 12.8 28.8 28.8s-14.4 28.8-28.8 28.8zM572.8 75.2h-124.8c-16 0-28.8-12.8-28.8-28.8s12.8-28.8 28.8-28.8h124.8c16 0 28.8 12.8 28.8 28.8s-12.8 28.8-28.8 28.8zM812.8 755.2h-11.2v155.2c0 51.2-41.6 94.4-94.4 94.4h-593.6c-51.2 0-94.4-41.6-94.4-94.4v-593.6c0-51.2 41.6-94.4 94.4-94.4h152v-6.4c0-16 12.8-28.8 28.8-28.8s28.8 12.8 28.8 28.8v444.8c0 20.8 17.6 38.4 38.4 38.4h452.8c16 0 28.8 12.8 28.8 28.8s-14.4 27.2-30.4 27.2zM265.6 660.8v-382.4h-152c-20.8 0-38.4 17.6-38.4 38.4v593.6c0 20.8 17.6 38.4 38.4 38.4h593.6c20.8 0 38.4-17.6 38.4-38.4v-155.2h-385.6c-51.2 0-94.4-41.6-94.4-94.4zM913.6 702.4c19.2 0 35.2-16 35.2-35.2 0-16 12.8-28.8 28.8-28.8s28.8 12.8 28.8 28.8c0 49.6-40 91.2-91.2 91.2-16 0-28.8-12.8-28.8-28.8s11.2-27.2 27.2-27.2zM976 595.2c-16 0-28.8-12.8-28.8-28.8v-124.8c0-16 12.8-28.8 28.8-28.8s28.8 12.8 28.8 28.8v124.8c0 16-12.8 28.8-28.8 28.8zM976 368c-16 0-28.8-12.8-28.8-28.8v-124.8c0-16 12.8-28.8 28.8-28.8s28.8 12.8 28.8 28.8v124.8c0 16-12.8 28.8-28.8 28.8zM976 139.2c-16 0-28.8-12.8-28.8-28.8 0-19.2-16-35.2-35.2-35.2-16 0-28.8-12.8-28.8-28.8s12.8-28.8 28.8-28.8c49.6 0 91.2 40 91.2 91.2 1.6 17.6-11.2 30.4-27.2 30.4zM356.8 75.2c-19.2 0-35.2 16-35.2 35.2 0 16-12.8 28.8-28.8 28.8s-28.8-12.8-28.8-28.8c0-49.6 40-91.2 91.2-91.2 16 0 28.8 12.8 28.8 28.8s-11.2 27.2-27.2 27.2z" />
<glyph unicode="&#xea2e;" glyph-name="mobile" d="M512 251.2c-32 0-56-25.6-56-56 0-32 25.6-56 56-56s56 25.6 56 56-24 56-56 56zM560 875.2h-96c-16 0-28.8-12.8-28.8-28.8s12.8-28.8 28.8-28.8h96c16 0 28.8 12.8 28.8 28.8s-12.8 28.8-28.8 28.8zM720 1003.2h-416c-51.2 0-92.8-41.6-92.8-92.8v-800c0-51.2 41.6-92.8 92.8-92.8h416c51.2 0 92.8 41.6 92.8 92.8v801.6c0 51.2-41.6 91.2-92.8 91.2zM756.8 112c0-19.2-16-36.8-36.8-36.8h-416c-19.2 0-36.8 16-36.8 36.8v800c0 19.2 16 36.8 36.8 36.8h416c19.2 0 36.8-16 36.8-36.8v-800z" />
<glyph unicode="&#xea3a;" glyph-name="role-manager" d="M454.4 587.2c118.4 0 214.4 92.8 214.4 208s-96 208-214.4 208-214.4-92.8-214.4-208 96-208 214.4-208zM454.4 947.2c88 0 158.4-68.8 158.4-152s-72-152-158.4-152c-88 0-158.4 68.8-158.4 152s70.4 152 158.4 152zM454.4 504c-208 0-377.6-168-377.6-376v-48c0-32 27.2-59.2 59.2-59.2h304c16 0 28.8 12.8 28.8 28.8s-12.8 28.8-28.8 28.8h-304c-1.6 0-3.2 1.6-3.2 3.2v48c0 174.4 144 318.4 321.6 318.4 16 0 28.8 12.8 28.8 28.8s-12.8 27.2-28.8 27.2zM737.6 438.4c-115.2 0-209.6-94.4-209.6-209.6s94.4-209.6 209.6-209.6c115.2 0 209.6 94.4 209.6 209.6s-94.4 209.6-209.6 209.6zM737.6 382.4c35.2 0 68.8-12.8 94.4-33.6l-220.8-204.8c-16 24-25.6 52.8-25.6 84.8 0 84.8 67.2 153.6 152 153.6zM737.6 75.2c-32 0-62.4 9.6-88 27.2l219.2 203.2c12.8-22.4 20.8-49.6 20.8-76.8 1.6-84.8-67.2-153.6-152-153.6z" />
<glyph unicode="&#xea43;" glyph-name="calendar" d="M912 857.6h-97.6v46.4c0 16-12.8 28.8-28.8 28.8s-28.8-12.8-28.8-28.8v-46.4h-491.2v46.4c0 16-12.8 28.8-28.8 28.8s-28.8-12.8-28.8-28.8v-46.4h-96c-51.2 0-92.8-41.6-92.8-92.8v-580.8c0-51.2 41.6-92.8 92.8-92.8h800c51.2 0 92.8 41.6 92.8 92.8v580.8c0 51.2-41.6 92.8-92.8 92.8zM76.8 568h160v-182.4h-160v182.4zM291.2 568h192v-182.4h-192v182.4zM484.8 329.6v-180.8h-192v180.8h192zM540.8 329.6h192v-180.8h-192v180.8zM540.8 385.6v182.4h192v-182.4h-192zM788.8 568h160v-182.4h-160v182.4zM112 801.6h97.6v-44.8c0-16 12.8-28.8 28.8-28.8s28.8 12.8 28.8 28.8v44.8h492.8v-44.8c0-16 12.8-28.8 28.8-28.8s28.8 12.8 28.8 28.8v44.8h94.4c19.2 0 36.8-16 36.8-36.8v-140.8h-872v140.8c0 20.8 16 36.8 35.2 36.8zM76.8 184v145.6h160v-180.8h-124.8c-19.2 0-35.2 16-35.2 35.2zM912 148.8h-123.2v180.8h160v-145.6c0-19.2-17.6-35.2-36.8-35.2z" />
<glyph unicode="&#xea4f;" glyph-name="sitemap" d="M313.6 868.8c-16 0-28.8-12.8-28.8-28.8v-1.6c0-16 12.8-28.8 28.8-28.8s28.8 12.8 28.8 28.8v1.6c-1.6 16-14.4 28.8-28.8 28.8zM739.2 867.2h-81.6c-16 0-28.8-12.8-28.8-28.8s12.8-28.8 28.8-28.8h81.6c16 0 28.8 12.8 28.8 28.8s-12.8 28.8-28.8 28.8zM928 275.2h-17.6v139.2c0 54.4-44.8 99.2-99.2 99.2h-272c0 3.2 1.6 4.8 1.6 8v158.4h275.2c41.6 0 76.8 33.6 76.8 76.8v160c0 41.6-33.6 76.8-76.8 76.8h-606.4c-41.6 0-76.8-33.6-76.8-76.8v-160c0-41.6 33.6-76.8 76.8-76.8h275.2v-158.4c0-3.2 0-4.8 1.6-8h-272c-54.4 0-99.2-44.8-99.2-99.2v-139.2h-19.2c-41.6 0-76.8-33.6-76.8-76.8v-91.2c0-41.6 33.6-76.8 76.8-76.8h91.2c41.6 0 76.8 33.6 76.8 76.8v91.2c0 41.6-33.6 76.8-76.8 76.8h-17.6v139.2c0 24 19.2 43.2 43.2 43.2h270.4v-184h-17.6c-41.6 0-76.8-33.6-76.8-76.8v-91.2c0-41.6 33.6-76.8 76.8-76.8h91.2c41.6 0 76.8 33.6 76.8 76.8v91.2c0 41.6-33.6 76.8-76.8 76.8h-17.6v185.6h270.4c24 0 43.2-19.2 43.2-43.2v-139.2h-17.6c-41.6 0-76.8-33.6-76.8-76.8v-91.2c0-41.6 33.6-76.8 76.8-76.8h92.8c41.6 0 76.8 33.6 76.8 76.8v91.2c0 40-35.2 75.2-76.8 75.2zM188.8 756.8v160c0 11.2 9.6 20.8 20.8 20.8h606.4c11.2 0 20.8-9.6 20.8-20.8v-160c0-11.2-9.6-20.8-20.8-20.8h-606.4c-11.2 1.6-20.8 9.6-20.8 20.8zM208 198.4v-91.2c0-11.2-9.6-20.8-20.8-20.8h-91.2c-11.2 0-20.8 9.6-20.8 20.8v91.2c0 11.2 9.6 20.8 20.8 20.8h91.2c11.2 0 20.8-9.6 20.8-20.8zM577.6 198.4v-91.2c0-11.2-9.6-20.8-20.8-20.8h-91.2c-11.2 0-20.8 9.6-20.8 20.8v91.2c0 11.2 9.6 20.8 20.8 20.8h91.2c12.8 0 20.8-9.6 20.8-20.8zM948.8 107.2c0-11.2-9.6-20.8-20.8-20.8h-91.2c-11.2 0-20.8 9.6-20.8 20.8v91.2c0 11.2 9.6 20.8 20.8 20.8h91.2c11.2 0 20.8-9.6 20.8-20.8v-91.2z" />
<glyph unicode="&#xea5a;" glyph-name="import" d="M468.8 372.8c9.6-9.6 24-16 36.8-16 14.4 0 27.2 4.8 36.8 16l118.4 118.4c11.2 11.2 11.2 28.8 0 40s-28.8 11.2-40 0l-88-88v406.4c0 16-12.8 28.8-28.8 28.8s-28.8-12.8-28.8-28.8v-406.4l-88 88c-11.2 11.2-28.8 11.2-40 0s-11.2-28.8 0-40l121.6-118.4zM934.4 540.8h-147.2c-16 0-28.8-12.8-28.8-28.8s12.8-28.8 28.8-28.8h147.2c8 0 14.4-6.4 14.4-14.4v-187.2c0-44.8-36.8-80-80-80h-712c-44.8 0-80 36.8-80 80v188.8c0 8 6.4 14.4 14.4 14.4h147.2c16 0 28.8 12.8 28.8 28.8s-12.8 28.8-28.8 28.8h-148.8c-38.4 0-70.4-32-70.4-70.4v-187.2c0-75.2 60.8-136 136-136h710.4c75.2 0 136 60.8 136 136v185.6c3.2 38.4-28.8 70.4-67.2 70.4z" />
<glyph unicode="&#xea5d;" glyph-name="export" d="M371.2 694.4c6.4 0 14.4 3.2 19.2 8l92.8 92.8v-411.2c0-16 12.8-28.8 28.8-28.8s28.8 12.8 28.8 28.8v403.2l83.2-84.8c11.2-11.2 28.8-11.2 40 0s11.2 28.8 0 40l-118.4 118.4c-9.6 9.6-24 16-36.8 16-14.4 0-27.2-4.8-36.8-16l-120-118.4c-11.2-11.2-11.2-28.8 0-40 6.4-4.8 12.8-8 19.2-8zM934.4 540.8h-147.2c-16 0-28.8-12.8-28.8-28.8s12.8-28.8 28.8-28.8h147.2c8 0 14.4-6.4 14.4-14.4v-187.2c0-44.8-36.8-80-80-80h-712c-44.8 0-80 36.8-80 80v188.8c0 8 6.4 14.4 14.4 14.4h147.2c16 0 28.8 12.8 28.8 28.8s-12.8 28.8-28.8 28.8h-148.8c-38.4 0-70.4-32-70.4-70.4v-187.2c0-75.2 60.8-136 136-136h710.4c75.2 0 136 60.8 136 136v185.6c3.2 38.4-28.8 70.4-67.2 70.4z" />
<glyph unicode="&#xea60;" glyph-name="settings" d="M513.6 708.8c-108.8 0-196.8-88-196.8-196.8s88-196.8 196.8-196.8c108.8 0 196.8 88 196.8 196.8-1.6 107.2-89.6 196.8-196.8 196.8zM513.6 371.2c-76.8 0-140.8 62.4-140.8 140.8s62.4 140.8 140.8 140.8 140.8-62.4 140.8-140.8c-1.6-78.4-64-140.8-140.8-140.8zM984 401.6l-99.2 54.4c3.2 20.8 4.8 40 4.8 59.2 0 22.4-1.6 41.6-4.8 60.8l100.8 56c17.6 9.6 24 30.4 16 49.6l-96 161.6c-9.6 16-30.4 22.4-49.6 16l-104-57.6c-6.4 4.8-12.8 11.2-19.2 16-17.6 16-35.2 30.4-59.2 41.6-4.8 1.6-8 8-8 12.8v62.4c0 38.4-32 70.4-70.4 70.4h-166.4c-38.4 0-70.4-32-70.4-70.4v-64c0-4.8-3.2-9.6-8-12.8-24-11.2-41.6-25.6-60.8-43.2-4.8-4.8-11.2-9.6-17.6-14.4l-92.8 52.8c-30.4 16-51.2 4.8-60.8-11.2l-91.2-156.8c-4.8-9.6-6.4-20.8-3.2-30.4s9.6-19.2 19.2-24l99.2-56c-3.2-17.6-4.8-36.8-4.8-59.2 0-20.8 1.6-40 3.2-59.2l-102.4-56c-17.6-9.6-24-30.4-16-49.6l94.4-161.6c9.6-16 30.4-22.4 49.6-16l104 57.6c6.4-4.8 12.8-9.6 17.6-14.4 19.2-16 35.2-30.4 60.8-41.6 4.8-1.6 8-8 8-12.8v-70.4c0-38.4 32-70.4 70.4-70.4h168c38.4 0 70.4 32 70.4 70.4v73.6c0 4.8 3.2 9.6 8 12.8 24 11.2 40 25.6 59.2 41.6 6.4 4.8 11.2 9.6 17.6 16l92.8-52.8c30.4-16 51.2-4.8 59.2 9.6l92.8 156.8c4.8 9.6 6.4 19.2 4.8 30.4 0 9.6-8 17.6-16 22.4zM865.6 233.6l-88 49.6c-19.2 11.2-43.2 8-59.2-4.8-8-6.4-14.4-12.8-20.8-17.6-17.6-14.4-28.8-25.6-46.4-33.6-24-11.2-40-36.8-40-62.4v-73.6c0-8-6.4-14.4-14.4-14.4h-168c-8 0-14.4 6.4-14.4 14.4v70.4c0 27.2-16 51.2-40 62.4-17.6 8-32 19.2-48 33.6-6.4 4.8-12.8 11.2-20.8 17.6-9.6 8-22.4 12.8-33.6 12.8-9.6 0-17.6-1.6-25.6-6.4l-88-49.6-75.2 128 84.8 48c20.8 11.2 30.4 33.6 28.8 56-1.6 16-3.2 33.6-3.2 51.2 0 19.2 1.6 35.2 3.2 49.6 4.8 24-6.4 48-27.2 59.2l-84.8 46.4 75.2 128 88-49.6c19.2-11.2 43.2-8 59.2 4.8 6.4 6.4 12.8 11.2 19.2 16 17.6 14.4 30.4 25.6 48 35.2 24 11.2 40 36.8 40 62.4v64c0 8 6.4 14.4 14.4 14.4h168c8 0 14.4-6.4 14.4-14.4v-62.4c0-27.2 16-51.2 40-62.4 17.6-8 30.4-19.2 46.4-33.6 6.4-6.4 14.4-11.2 22.4-17.6 16-12.8 40-16 59.2-4.8l88 49.6 75.2-128-84.8-46.4c-20.8-11.2-32-35.2-27.2-59.2 3.2-14.4 3.2-32 3.2-49.6 0-16-1.6-33.6-4.8-51.2-4.8-24 8-48 28.8-59.2l83.2-44.8-75.2-128z" />
<glyph unicode="&#xea67;" glyph-name="desktop" d="M912 969.6h-800c-51.2 0-91.2-41.6-91.2-91.2v-505.6c0-51.2 41.6-92.8 92.8-92.8h273.6l-46.4-171.2h-81.6c-16 0-28.8-12.8-28.8-28.8s12.8-28.8 28.8-28.8h505.6c16 0 28.8 12.8 28.8 28.8s-12.8 28.8-28.8 28.8h-81.6l-46.4 171.2h275.2c51.2 0 92.8 41.6 92.8 92.8v505.6c0 49.6-41.6 91.2-92.8 91.2zM625.6 110.4h-227.2l46.4 171.2h136l44.8-171.2zM948.8 372.8c0-19.2-16-36.8-36.8-36.8h-800c-19.2 0-36.8 16-36.8 36.8v505.6c0 19.2 16 36.8 36.8 36.8h800c19.2 0 36.8-16 36.8-36.8v-505.6z" />
<glyph unicode="&#xea6f;" glyph-name="htaccess" d="M300.8 566.4h307.2c16 0 28.8 12.8 28.8 28.8s-12.8 27.2-28.8 27.2h-307.2c-16 0-28.8-12.8-28.8-28.8s12.8-27.2 28.8-27.2zM300.8 396.8h307.2c16 0 28.8 12.8 28.8 28.8s-12.8 27.2-28.8 27.2h-307.2c-16 0-28.8-12.8-28.8-28.8s12.8-27.2 28.8-27.2zM723.2 283.2h-422.4c-16 0-28.8-12.8-28.8-28.8s12.8-28.8 28.8-28.8h424c16 0 28.8 12.8 28.8 28.8s-14.4 28.8-30.4 28.8zM929.6 817.6h-403.2l-46.4 134.4c-9.6 30.4-38.4 49.6-70.4 49.6h-315.2c-41.6 0-73.6-32-73.6-73.6v-832c0-40 33.6-73.6 73.6-73.6h836.8c40 0 73.6 33.6 73.6 73.6v648c0 40-33.6 73.6-75.2 73.6zM948.8 96c0-9.6-8-17.6-17.6-17.6h-836.8c-9.6 0-17.6 8-17.6 17.6v832c0 9.6 8 17.6 17.6 17.6h316.8c8 0 14.4-4.8 16-11.2l52.8-153.6c3.2-11.2 14.4-19.2 27.2-19.2h424c9.6 0 17.6-8 17.6-17.6v-648z" />
<glyph unicode="&#xea70;" glyph-name="robots" d="M659.2 561.6l-134.4 68.8c-8 4.8-17.6 4.8-25.6 0l-134.4-68.8c-9.6-4.8-14.4-14.4-14.4-25.6v-76.8c0-91.2 44.8-177.6 118.4-228.8l28.8-19.2c4.8-3.2 9.6-4.8 16-4.8s11.2 1.6 16 4.8l28.8 19.2c73.6 51.2 118.4 136 118.4 228.8v76.8c-1.6 11.2-8 20.8-17.6 25.6zM619.2 460.8c0-73.6-35.2-142.4-94.4-182.4l-12.8-9.6-12.8 8c-59.2 40-94.4 108.8-94.4 182.4v59.2l107.2 54.4 107.2-54.4v-57.6zM929.6 817.6h-403.2l-46.4 134.4c-9.6 30.4-38.4 49.6-70.4 49.6h-315.2c-41.6 0-73.6-32-73.6-73.6v-832c0-40 33.6-73.6 73.6-73.6h836.8c40 0 73.6 33.6 73.6 73.6v648c0 40-33.6 73.6-75.2 73.6zM948.8 96c0-9.6-8-17.6-17.6-17.6h-836.8c-9.6 0-17.6 8-17.6 17.6v832c0 9.6 8 17.6 17.6 17.6h316.8c8 0 14.4-4.8 16-11.2l52.8-153.6c3.2-11.2 14.4-19.2 27.2-19.2h424c9.6 0 17.6-8 17.6-17.6v-648z" />
<glyph unicode="&#xea76;" glyph-name="category" d="M968 691.2v92.8c0 36.8-30.4 67.2-67.2 67.2h-408l-9.6 25.6c-6.4 14.4-20.8 24-35.2 24h-316.8c-46.4-1.6-83.2-40-83.2-84.8v-608c0-46.4 36.8-83.2 83.2-83.2h761.6c46.4 0 83.2 36.8 83.2 83.2v459.2c0 8-3.2 16-8 24zM900.8 793.6c6.4 0 11.2-4.8 11.2-11.2v-76.8h-361.6l-35.2 88h385.6zM920 208c0-14.4-12.8-27.2-27.2-27.2h-761.6c-14.4 0-27.2 12.8-27.2 27.2v608c0 14.4 12.8 27.2 27.2 27.2h304l64-158.4c8-20.8 28.8-35.2 51.2-35.2h369.6v-441.6z" />
<glyph unicode="&#xea83;" glyph-name="link" d="M469.503 779.315l-132.214 130.64c-70.829 70.829-185.729 70.829-256.558 0-34.627-34.627-53.515-80.273-53.515-127.492s18.888-94.438 53.515-127.492l130.64-132.214c34.627-34.627 81.847-53.515 127.492-53.515s92.864 17.314 127.492 53.515c34.627 33.053 53.515 78.699 53.515 127.492 1.574 48.793-17.314 94.438-50.367 129.066zM250.72 562.107l-130.64 132.214c-23.61 23.61-37.775 55.089-37.775 89.716s12.592 64.533 37.775 89.716c25.184 25.184 56.663 36.201 89.716 36.201 31.479 0 64.533-12.592 89.716-36.201l130.64-130.64c23.61-23.61 36.201-55.089 36.201-89.716 0-26.758-7.87-50.367-22.036-70.829l-48.793 48.793c-11.018 11.018-28.332 11.018-39.349 0s-11.018-28.332 0-39.349l47.219-45.645c-48.793-31.479-111.752-25.184-152.675 15.74zM943.269 305.549l-132.214 130.64c-70.829 70.829-185.729 70.829-256.558 0-34.627-34.627-53.515-80.273-53.515-127.492 0-48.793 18.888-94.438 53.515-127.492l130.64-132.214c34.627-34.627 81.847-53.515 127.492-53.515s92.864 17.314 127.492 53.515c34.627 33.053 53.515 78.699 53.515 125.918 3.148 50.367-15.74 96.012-50.367 130.64zM903.919 88.341c-48.793-48.793-129.066-48.793-177.859 0l-130.64 132.214c-23.61 23.61-37.775 55.089-37.775 89.716 0 22.036 6.296 44.071 17.314 62.959l45.645-45.645c4.722-4.722 12.592-7.87 18.888-7.87s14.166 3.148 18.888 7.87c11.018 11.018 11.018 28.332 0 39.349l-47.219 47.219c22.036 14.166 47.219 22.036 72.403 22.036 31.479 0 64.533-12.592 89.716-36.201l130.64-130.64c23.61-23.61 36.201-56.663 36.201-89.716 0-36.201-12.592-67.681-36.201-91.29zM636.344 743.114c15.74 0 28.332 12.592 28.332 28.332v124.344c0 15.74-12.592 28.332-28.332 28.332s-28.332-12.592-28.332-28.332v-124.344c1.574-15.74 14.166-28.332 28.332-28.332zM774.854 604.604c0-15.74 12.592-28.332 28.332-28.332h124.344c15.74 0 28.332 12.592 28.332 28.332s-12.592 28.332-28.332 28.332h-124.344c-15.74 0-28.332-12.592-28.332-28.332zM697.729 664.415c7.87 0 14.166 3.148 18.888 7.87l105.456 107.030c11.018 11.018 11.018 28.332 0 39.349s-28.332 11.018-39.349 0l-105.456-107.030c-11.018-11.018-11.018-28.332 0-39.349 6.296-4.722 12.592-7.87 20.462-7.87zM387.656 215.833c-15.74 0-28.332-12.592-28.332-28.332v-124.344c0-15.74 12.592-28.332 28.332-28.332s28.332 12.592 28.332 28.332v124.344c-1.574 17.314-12.592 28.332-28.332 28.332zM208.223 355.916c0 15.74-12.592 28.332-28.332 28.332h-83.421c-15.74 0-28.332-12.592-28.332-28.332s12.592-28.332 28.332-28.332h83.421c15.74 0 28.332 12.592 28.332 28.332zM271.182 305.549l-105.456-105.456c-11.018-11.018-11.018-28.332 0-39.349 4.722-4.722 12.592-7.87 18.888-7.87s14.166 3.148 18.888 7.87l105.456 105.456c11.018 11.018 11.018 28.332 0 39.349-9.444 11.018-26.758 11.018-37.775 0z" />
<glyph unicode="&#xea87;" glyph-name="local-seo" d="M512 1003.2c-222.4 0-404.8-176-404.8-390.4 0-171.2 244.8-454.4 350.4-569.6 14.4-16 33.6-24 54.4-24s40 8 54.4 24c105.6 113.6 350.4 398.4 350.4 569.6 0 216-182.4 390.4-404.8 390.4zM524.8 81.6c-8-8-19.2-8-25.6 0-78.4 84.8-336 376-336 531.2 0 185.6 156.8 334.4 348.8 334.4s348.8-150.4 348.8-334.4c0-155.2-257.6-444.8-336-531.2zM512 772.8c-94.4 0-172.8-76.8-172.8-172.8 0-94.4 76.8-172.8 172.8-172.8s172.8 76.8 172.8 172.8c0 96-78.4 172.8-172.8 172.8zM512 484.8c-64 0-116.8 52.8-116.8 116.8s52.8 116.8 116.8 116.8 116.8-52.8 116.8-116.8-52.8-116.8-116.8-116.8z" />
<glyph unicode="&#xea8f;" glyph-name="misc" d="M512 1003.2c-272 0-491.2-219.2-491.2-491.2s219.2-492.8 491.2-492.8 492.8 220.8 492.8 492.8-220.8 491.2-492.8 491.2zM512 75.2c-240 0-435.2 196.8-435.2 436.8s195.2 435.2 435.2 435.2 436.8-195.2 436.8-435.2-196.8-436.8-436.8-436.8zM678.4 732.8h-332.8c-16 0-28.8-12.8-28.8-28.8s12.8-28.8 28.8-28.8h332.8c16 0 28.8 12.8 28.8 28.8s-12.8 28.8-28.8 28.8zM678.4 539.2h-332.8c-16 0-28.8-12.8-28.8-28.8s12.8-28.8 28.8-28.8h332.8c16 0 28.8 12.8 28.8 28.8s-12.8 28.8-28.8 28.8zM678.4 347.2h-332.8c-16 0-28.8-12.8-28.8-28.8s12.8-28.8 28.8-28.8h332.8c16 0 28.8 12.8 28.8 28.8s-12.8 28.8-28.8 28.8z" />
<glyph unicode="&#xea9a;" glyph-name="software" d="M963.2 790.4c0 1.6-1.6 1.6-1.6 3.2-11.2 16-27.2 28.8-44.8 36.8l-356.8 163.2c-30.4 14.4-64 14.4-94.4 0l-358.4-163.2c-17.6-8-33.6-20.8-44.8-36.8-1.6-1.6-3.2-3.2-3.2-4.8 0 0 0-1.6-1.6-1.6-11.2-17.6-17.6-38.4-17.6-60.8v-414.4c0-43.2 24-81.6 62.4-100.8l358.4-179.2c16-8 33.6-12.8 51.2-12.8s35.2 4.8 51.2 12.8l356.8 179.2c38.4 19.2 62.4 57.6 62.4 100.8v414.4c0 24-6.4 44.8-19.2 64zM488 942.4c8 3.2 16 4.8 24 4.8s16-1.6 24-4.8l353.6-161.6-155.2-75.2-364.8 182.4 118.4 54.4zM512 596.8l-377.6 184 169.6 78.4 368-184-160-78.4zM129.6 262.4c-19.2 9.6-32 30.4-32 51.2v412.8c0 3.2 0 6.4 1.6 9.6l385.6-188.8v-465.6l-355.2 180.8zM926.4 313.6c0-22.4-12.8-41.6-32-51.2l-355.2-179.2v464l164.8 80v-150.4c0-16 12.8-28.8 28.8-28.8s28.8 12.8 28.8 28.8v177.6l164.8 81.6c0-3.2 1.6-6.4 1.6-9.6v-412.8z" />
<glyph unicode="&#xeaa0;" glyph-name="image" d="M138.232 998.076c-21.252-7.628-33.916-17.552-48.232-37.796l-12-16.968-1.188-422.656c-0.844-300.132 0.096-427.076 3.236-437.904 5.688-19.612 29.512-45.98 49.952-55.288 15.1-6.88 36.576-7.292 382.216-7.376l366.212-0.088 20.868 10.4c24.072 11.992 42.312 35.372 48.484 62.14 5.792 25.132 5.656 808.376-0.148 835.436-5.46 25.452-24.484 50.924-47.82 64.024l-17.812 10-364 0.868c-305.348 0.728-366.54-0.044-379.768-4.792M882.912 934.912l11.088-11.088 1.124-225.104 1.128-225.108-33.26-22.588c-18.288-12.428-54.796-40.972-81.124-63.436-56.872-48.524-88.132-69.576-115.296-77.644-43.172-12.82-76.42-4.54-116.196 28.936-143.732 120.968-215.088 126.672-367.916 29.412-21.304-13.556-41.368-25.66-44.596-26.896-5.12-1.968-5.864 34.776-5.864 289.288 0 316.544-0.836 304.312 21.428 313.384 4.716 1.92 168.28 3.14 363.484 2.712l354.908-0.78 11.092-11.088M606 788.528c-37.272-9.792-72.26-38.044-88.776-71.672-9.64-19.632-11.22-27.652-11.184-56.856 0.044-40.428 8.096-61.476 34.444-90.060 25.212-27.352 50.484-38.932 89.516-41.012 43.38-2.308 70.548 7.796 99.912 37.16 35.904 35.9 47.612 87.504 31.308 137.984-8.732 27.036-38.668 60.136-66.876 73.936-22.788 11.148-66.26 16.324-88.344 10.52M674.536 724.324c6.896-4.204 17.696-14.408 24-22.672 10.148-13.304 11.464-18.312 11.464-43.632 0-35.656-10.304-53.288-39.784-68.088-30.040-15.080-59.088-11.46-84.064 10.472-38.356 33.676-31.46 99.932 12.84 123.32 20.364 10.748 58.404 11.052 75.544 0.6M892 251.692v-152.308l-23.384-23.384h-712.004l-24.612 20.712v174.388l65 40.004c76.752 47.236 89.62 53.944 120.832 63.020 49.4 14.36 94.94-0.4 163.516-53.008 66.116-50.72 76.436-57.412 98.548-63.92 32.68-9.62 77.284-7.696 110.372 4.76 33.328 12.544 62.688 32.272 121.732 81.788 54.72 45.888 72.96 60.152 77 60.212 1.648 0.024 3-68.496 3-152.264" />
<glyph unicode="&#xeaa9;" glyph-name="analyzer" d="M48 753.6c16 0 28.8 12.8 28.8 28.8v139.2c0 9.6 8 16 16 16h137.6c16 0 28.8 12.8 28.8 28.8s-12.8 28.8-28.8 28.8h-137.6c-40 0-72-32-72-72v-139.2c0-17.6 11.2-30.4 27.2-30.4zM931.2 993.6h-137.6c-16 0-28.8-12.8-28.8-28.8s12.8-28.8 28.8-28.8h137.6c9.6 0 16-8 16-16v-139.2c0-16 12.8-28.8 28.8-28.8s28.8 12.8 28.8 28.8v140.8c0 40-33.6 72-73.6 72zM976 270.4c-16 0-28.8-12.8-28.8-28.8v-139.2c0-9.6-8-16-16-16h-137.6c-16 0-28.8-12.8-28.8-28.8s12.8-28.8 28.8-28.8h137.6c40 0 72 32 72 72v139.2c1.6 17.6-11.2 30.4-27.2 30.4zM230.4 86.4h-137.6c-9.6 0-16 8-16 16v139.2c0 16-12.8 28.8-28.8 28.8s-28.8-12.8-28.8-28.8v-139.2c0-40 32-72 72-72h137.6c16 0 28.8 12.8 28.8 28.8s-12.8 27.2-27.2 27.2zM830.4 512c0 12.8-4.8 25.6-14.4 35.2-44.8 43.2-161.6 145.6-304 145.6s-259.2-102.4-304-145.6c-9.6-9.6-14.4-22.4-14.4-35.2s4.8-25.6 14.4-35.2c44.8-43.2 161.6-145.6 304-145.6s259.2 102.4 304 145.6c9.6 9.6 14.4 22.4 14.4 35.2zM512 387.2c-116.8 0-217.6 84.8-259.2 124.8 41.6 41.6 142.4 124.8 259.2 124.8s217.6-84.8 259.2-124.8c-41.6-41.6-142.4-124.8-259.2-124.8zM454.4 512c0-32 25.6-57.6 57.6-57.6s57.6 25.6 57.6 57.6-25.6 57.6-57.6 57.6-57.6-25.6-57.6-57.6z" />
<glyph unicode="&#xeaab;" glyph-name="search" d="M993.6 112l-281.6 227.2c116.8 152 105.6 369.6-33.6 508.8-73.6 73.6-169.6 113.6-273.6 113.6s-198.4-40-272-113.6c-150.4-150.4-150.4-396.8 0-547.2 73.6-73.6 169.6-113.6 273.6-113.6 100.8 0 196.8 38.4 268.8 108.8l283.2-230.4c4.8-4.8 11.2-6.4 17.6-6.4 8 0 16 3.2 22.4 9.6 9.6 16 8 33.6-4.8 43.2zM406.4 244.8c-88 0-171.2 35.2-233.6 97.6-129.6 129.6-129.6 339.2 0 467.2 62.4 62.4 145.6 97.6 233.6 97.6s171.2-33.6 233.6-97.6c129.6-129.6 129.6-339.2 0-467.2-62.4-64-145.6-97.6-233.6-97.6z" />
<glyph unicode="&#xeab3;" glyph-name="star-filled" d="M955.2 641.6l-289.6 44.8-131.2 275.2c-9.6 19.2-35.2 19.2-44.8 0l-131.2-276.8-288-43.2c-20.8-3.2-28.8-30.4-12.8-44.8l209.6-216-49.6-302.4c-3.2-20.8 17.6-38.4 36.8-25.6l260.8 142.4 259.2-142.4c17.6-9.6 40 6.4 35.2 25.6l-49.6 302.4 209.6 216c12.8 14.4 6.4 41.6-14.4 44.8z" />
<glyph unicode="&#xeab5;" glyph-name="star" d="M248 20.8c-12.8 0-25.6 3.2-36.8 11.2-20.8 14.4-32 40-27.2 65.6l43.2 272-187.2 193.6c-17.6 17.6-24 44.8-16 68.8s27.2 40 51.2 44.8l260.8 41.6 116.8 248c11.2 22.4 33.6 36.8 57.6 36.8 25.6 0 46.4-14.4 57.6-36.8l120-246.4 260.8-41.6c24-3.2 43.2-20.8 51.2-44.8s1.6-51.2-16-68.8l-188.8-193.6 44.8-273.6c4.8-25.6-6.4-51.2-27.2-65.6-19.2-14.4-44.8-16-67.2-4.8l-233.6 128-233.6-128c-9.6-4.8-19.2-6.4-30.4-6.4zM80 601.6l193.6-198.4c9.6-9.6 14.4-24 11.2-38.4l-44.8-276.8c-1.6-6.4 3.2-9.6 4.8-11.2 3.2-3.2 6.4-1.6 8 0l240 131.2c12.8 6.4 27.2 6.4 40 0l240-129.6c1.6 0 3.2-1.6 8 0 1.6 1.6 4.8 4.8 4.8 11.2l-44.8 278.4c-1.6 14.4 1.6 27.2 11.2 38.4l192 198.4c4.8 4.8 3.2 9.6 3.2 12.8 0 1.6-3.2 6.4-6.4 6.4l-268.8 41.6c-14.4 1.6-25.6 11.2-32 24l-120 252.8c-1.6 4.8-4.8 4.8-8 4.8-1.6 0-4.8-1.6-8-4.8l-120-254.4c-6.4-12.8-17.6-22.4-32-24l-267.2-43.2c-4.8 0-6.4-4.8-6.4-6.4-1.6-1.6-3.2-8 1.6-12.8z" />
<glyph unicode="&#xeaba;" glyph-name="trash" d="M811.2 886.4h-155.2v57.6c0 33.6-27.2 60.8-60.8 60.8h-166.4c-33.6-1.6-60.8-27.2-60.8-60.8v-57.6h-155.2c-33.6 0-60.8-27.2-60.8-60.8v-116.8c0-16 12.8-28.8 28.8-28.8h24v-542.4c0-65.6 54.4-120 120-120h376c65.6 0 120 54.4 120 120v545.6h24c16 0 28.8 12.8 28.8 28.8v116.8c-3.2 32-28.8 57.6-62.4 57.6zM424 944c0 1.6 1.6 4.8 4.8 4.8h166.4c1.6 0 4.8-1.6 4.8-4.8v-57.6h-176v57.6zM209.6 827.2c0 1.6 1.6 4.8 4.8 4.8h598.4c1.6 0 4.8-1.6 4.8-4.8v-88h-608v88zM763.2 139.2c0-35.2-28.8-64-64-64h-374.4c-35.2 0-64 28.8-64 64v544h504v-544zM512 251.2c16 0 28.8 12.8 28.8 28.8v209.6c0 16-12.8 28.8-28.8 28.8s-28.8-12.8-28.8-28.8v-211.2c1.6-16 12.8-27.2 28.8-27.2zM646.4 251.2c16 0 28.8 12.8 28.8 28.8v209.6c0 16-12.8 28.8-28.8 28.8s-28.8-12.8-28.8-28.8v-211.2c1.6-16 14.4-27.2 28.8-27.2zM377.6 251.2c16 0 28.8 12.8 28.8 28.8v209.6c0 16-12.8 28.8-28.8 28.8s-28.8-12.8-28.8-28.8v-211.2c0-16 12.8-27.2 28.8-27.2z" />
<glyph unicode="&#xeac4;" glyph-name="users" d="M328 566.4c97.6 0 177.6 76.8 177.6 172.8s-80 172.8-177.6 172.8-177.6-76.8-177.6-172.8 80-172.8 177.6-172.8zM328 856c67.2 0 121.6-52.8 121.6-116.8s-54.4-116.8-121.6-116.8-121.6 52.8-121.6 116.8 54.4 116.8 121.6 116.8zM744 488c83.2 0 152 65.6 152 147.2s-68.8 147.2-152 147.2-152-65.6-152-147.2c0-80 68.8-147.2 152-147.2zM744 728c52.8 0 96-41.6 96-91.2 0-51.2-43.2-91.2-96-91.2s-96 41.6-96 91.2 43.2 91.2 96 91.2zM752 452.8h-14.4c-49.6 0-97.6-14.4-139.2-41.6-40 60.8-110.4 100.8-188.8 100.8h-163.2c-124.8 0-225.6-102.4-225.6-227.2v-126.4c0-25.6 20.8-46.4 46.4-46.4h891.2c27.2 0 48 22.4 48 48v40c-1.6 139.2-115.2 252.8-254.4 252.8zM532.8 168h-456v116.8c0 94.4 76.8 171.2 171.2 171.2h161.6c94.4 0 171.2-76.8 171.2-171.2v-116.8h-48zM948.8 168h-312v116.8c0 25.6-4.8 51.2-12.8 75.2 33.6 24 72 36.8 113.6 36.8h14.4c108.8 0 196.8-88 196.8-196.8v-32z" />
<glyph unicode="&#xeb6a;" glyph-name="images" d="M369.6 360c49.6 0 91.2 40 91.2 89.6s-40 89.6-91.2 89.6-91.2-40-91.2-89.6c1.6-49.6 41.6-89.6 91.2-89.6zM369.6 484.8c19.2 0 35.2-16 35.2-33.6 0-19.2-16-33.6-35.2-33.6-17.6-1.6-33.6 14.4-33.6 32 0 19.2 16 35.2 33.6 35.2zM787.2 689.6c49.6 0 91.2 40 91.2 89.6s-40 89.6-91.2 89.6-91.2-40-91.2-89.6c0-49.6 41.6-89.6 91.2-89.6zM787.2 812.8c19.2 0 35.2-16 35.2-33.6s-16-33.6-35.2-33.6-35.2 16-35.2 33.6 16 33.6 35.2 33.6zM888 1000h-328c-64 0-115.2-51.2-115.2-115.2v-212.8h-324.8c-51.2 0-92.8-41.6-92.8-92.8v-464c0-51.2 41.6-92.8 92.8-92.8h376c51.2 0 92.8 41.6 92.8 92.8v236.8h300.8c64 0 115.2 51.2 115.2 115.2v416c0 65.6-52.8 116.8-116.8 116.8zM560 944h329.6c33.6 0 59.2-27.2 59.2-59.2v-241.6c-12.8-8-32-20.8-35.2-24-14.4-9.6-28.8-22.4-43.2-33.6-41.6-36.8-70.4-57.6-108.8-43.2-6.4 3.2-14.4 9.6-22.4 16l-6.4 4.8c-24 19.2-51.2 41.6-84.8 51.2-20.8 6.4-43.2 6.4-65.6 1.6-12.8 32-44.8 56-81.6 57.6v211.2c-1.6 33.6 25.6 59.2 59.2 59.2zM120 616h376c19.2 0 36.8-16 36.8-36.8v-264c-8-4.8-19.2-12.8-35.2-24-14.4-9.6-28.8-22.4-43.2-33.6-41.6-36.8-70.4-57.6-108.8-43.2-8 3.2-16 9.6-25.6 17.6l-3.2 3.2c-24 19.2-51.2 41.6-84.8 51.2-56 17.6-105.6-11.2-147.2-36.8v329.6c-1.6 20.8 14.4 36.8 35.2 36.8zM496 80h-376c-19.2 0-36.8 16-36.8 36.8v65.6c8 4.8 14.4 9.6 22.4 12.8 38.4 24 73.6 46.4 108.8 35.2 24-6.4 44.8-24 65.6-41.6l3.2-3.2c11.2-9.6 24-20.8 41.6-27.2 14.4-4.8 28.8-8 43.2-8 49.6 0 89.6 33.6 121.6 62.4 12.8 11.2 25.6 22.4 36.8 30.4 1.6 1.6 3.2 1.6 4.8 3.2v-131.2c0-19.2-16-35.2-35.2-35.2zM888 408h-300.8v150.4c16 4.8 28.8 4.8 43.2 1.6 24-6.4 44.8-24 65.6-41.6l4.8-3.2c11.2-9.6 24-20.8 40-25.6s28.8-8 43.2-8c49.6 0 89.6 33.6 121.6 62.4 12.8 11.2 25.6 22.4 38.4 30.4 1.6 1.6 3.2 1.6 4.8 3.2v-108.8c0-33.6-27.2-60.8-60.8-60.8z" />
<glyph unicode="&#xeb70;" glyph-name="redirection" d="M971.2 588.8l-384 384c-20.8 20.8-48 32-76.8 32s-56-11.2-76.8-32l-384-384c-20.8-20.8-32-48-32-76.8s11.2-56 32-76.8l384-384c20.8-20.8 48-32 76.8-32s56 11.2 76.8 32l384 384c43.2 43.2 43.2 110.4 0 153.6zM932.8 475.2l-384-384c-20.8-20.8-52.8-20.8-73.6 0l-384 384c-9.6 9.6-16 22.4-16 36.8s4.8 27.2 16 36.8l384 384c9.6 9.6 22.4 16 36.8 16s27.2-4.8 36.8-16l384-384c19.2-20.8 19.2-52.8 0-73.6zM540.8 667.2c-11.2 11.2-28.8 11.2-40 0s-11.2-28.8 0-40l88-88h-220.8c-16 0-28.8-12.8-28.8-28.8v-136c0-16 12.8-28.8 28.8-28.8s28.8 12.8 28.8 28.8v107.2h193.6l-88-88c-11.2-11.2-11.2-28.8 0-40 4.8-4.8 12.8-8 19.2-8s14.4 3.2 19.2 8l136 136c11.2 11.2 11.2 28.8 0 40l-136 137.6z" />
<glyph unicode="&#xeb73;" glyph-name="video" d="M880 1003.2h-736c-68.8 0-123.2-54.4-123.2-123.2v-736c0-68.8 56-124.8 124.8-124.8h736c68.8 0 124.8 56 124.8 124.8v736c-1.6 68.8-57.6 123.2-126.4 123.2zM248 539.2h-171.2v180.8h172.8v-180.8zM76.8 483.2h172.8v-179.2h-172.8v179.2zM304 947.2h416v-872h-416v872zM948.8 539.2h-172.8v180.8h172.8v-180.8zM776 483.2h172.8v-179.2h-172.8v179.2zM948.8 880v-104h-172.8v171.2h104c36.8 0 68.8-30.4 68.8-67.2zM144 947.2h104v-172.8h-171.2v105.6c0 36.8 30.4 67.2 67.2 67.2zM76.8 144v104h172.8v-172.8h-105.6c-36.8 0-67.2 32-67.2 68.8zM880 75.2h-104v172.8h172.8v-104c0-36.8-32-68.8-68.8-68.8zM636.8 555.2l-152 92.8c-16 9.6-35.2 9.6-51.2 1.6-16-9.6-25.6-25.6-25.6-44.8v-184c0-17.6 9.6-35.2 25.6-44.8 8-4.8 16-6.4 25.6-6.4s17.6 3.2 25.6 8l152 92.8c16 9.6 24 25.6 24 43.2s-8 32-24 41.6zM464 430.4v163.2l136-81.6-136-81.6z" />
<glyph unicode="&#xeb97;" glyph-name="schema" d="M419.2 582.4l-11.2-64c-1.6-11.2 3.2-20.8 11.2-27.2s20.8-6.4 28.8-1.6l57.6 30.4 57.6-30.4c4.8-1.6 8-3.2 12.8-3.2 6.4 0 11.2 1.6 16 4.8 8 6.4 12.8 17.6 11.2 27.2l-11.2 64 46.4 44.8c8 8 9.6 19.2 6.4 28.8s-12.8 17.6-22.4 19.2l-64 9.6-28.8 59.2c-4.8 9.6-14.4 16-25.6 16s-20.8-6.4-25.6-16l-28.8-59.2-64-9.6c-11.2-1.6-19.2-9.6-22.4-19.2s0-20.8 6.4-28.8l49.6-44.8zM475.2 632c9.6 1.6 17.6 6.4 20.8 16l9.6 20.8 9.6-20.8c4.8-8 11.2-14.4 20.8-16l22.4-3.2-16-16c-6.4-6.4-9.6-16-8-24l3.2-22.4-20.8 11.2c-8 4.8-17.6 4.8-25.6 0l-20.8-11.2 3.2 22.4c1.6 9.6-1.6 17.6-8 24l-16 16 25.6 3.2zM928 886.4h-832c-41.6 0-76.8-33.6-76.8-76.8v-596.8c0-41.6 33.6-76.8 76.8-76.8h832c41.6 0 76.8 33.6 76.8 76.8v596.8c0 43.2-35.2 76.8-76.8 76.8zM774.4 193.6h-534.4c3.2 11.2 3.2 20.8 3.2 32 0 76.8-62.4 139.2-139.2 139.2-9.6 0-19.2-1.6-28.8-3.2v318.4c9.6-1.6 19.2-3.2 28.8-3.2 76.8 0 139.2 62.4 139.2 139.2v14.4h528v-14.4c0-76.8 62.4-139.2 139.2-139.2 12.8 0 25.6 1.6 38.4 6.4v-323.2c-12.8 3.2-25.6 6.4-38.4 6.4-76.8 0-139.2-62.4-139.2-139.2 0-12.8 0-22.4 3.2-33.6zM948.8 809.6v-67.2c-11.2-6.4-25.6-9.6-38.4-9.6-44.8 0-83.2 36.8-83.2 83.2 0 4.8 0 9.6 1.6 14.4h99.2c11.2 0 20.8-9.6 20.8-20.8zM96 830.4h89.6c0-4.8 1.6-9.6 1.6-14.4 0-46.4-36.8-83.2-83.2-83.2-9.6 0-19.2 1.6-28.8 4.8v72c1.6 11.2 9.6 20.8 20.8 20.8zM76.8 214.4v89.6c9.6 3.2 19.2 4.8 28.8 4.8 44.8 0 83.2-36.8 83.2-83.2 0-11.2-1.6-20.8-6.4-30.4v-1.6h-86.4c-11.2 0-19.2 9.6-19.2 20.8zM928 193.6h-94.4v1.6c-4.8 9.6-6.4 20.8-6.4 30.4 0 46.4 36.8 83.2 83.2 83.2 14.4 0 27.2-3.2 38.4-9.6v-84.8c0-11.2-9.6-20.8-20.8-20.8zM728 417.6h-443.2c-16 0-28.8-12.8-28.8-28.8s12.8-28.8 28.8-28.8h443.2c16 0 28.8 12.8 28.8 28.8s-12.8 28.8-28.8 28.8zM622.4 313.6h-230.4c-16 0-28.8-12.8-28.8-28.8s12.8-28.8 28.8-28.8h228.8c16 0 28.8 12.8 28.8 28.8s-12.8 28.8-27.2 28.8z" />
<glyph unicode="&#xeb99;" glyph-name="adsense" d="M912 942.4h-800c-51.2 0-92.8-41.6-92.8-92.8v-360c0-51.2 41.6-92.8 92.8-92.8h57.6v-288c0-16 12.8-28.8 28.8-28.8s28.8 12.8 28.8 28.8v288h259.2v-288c0-16 12.8-28.8 28.8-28.8s28.8 12.8 28.8 28.8v288h259.2v-288c0-16 12.8-28.8 28.8-28.8s28.8 12.8 28.8 28.8v288h51.2c51.2 0 92.8 41.6 92.8 92.8v360c0 51.2-41.6 92.8-92.8 92.8zM948.8 489.6c0-19.2-16-36.8-36.8-36.8h-800c-19.2 0-36.8 16-36.8 36.8v360c0 19.2 16 36.8 36.8 36.8h800c19.2 0 36.8-16 36.8-36.8v-360zM398.4 806.4c-4.8 9.6-14.4 16-25.6 16s-20.8-6.4-25.6-16l-112-228.8c-6.4-14.4-1.6-30.4 12.8-36.8 3.2-1.6 8-3.2 12.8-3.2 9.6 0 20.8 6.4 25.6 16l86.4 176 86.4-176c6.4-14.4 24-19.2 36.8-12.8 14.4 6.4 19.2 24 12.8 36.8l-110.4 228.8zM667.2 825.6h-54.4c-16 0-28.8-12.8-28.8-28.8v-233.6c0-16 12.8-28.8 28.8-28.8h54.4c68.8 0 124.8 56 124.8 124.8v41.6c-1.6 68.8-57.6 124.8-124.8 124.8zM734.4 659.2c0-38.4-30.4-68.8-68.8-68.8h-25.6v179.2h27.2c38.4 0 68.8-30.4 68.8-68.8v-41.6z" />
<glyph unicode="&#xeb9d;" glyph-name="tick" d="M996.8 820.8c-11.2 11.2-28.8 11.2-40 0l-584-566.4c-4.8-4.8-11.2-4.8-16 0l-289.6 281.6c-11.2 11.2-28.8 11.2-40 0s-11.2-28.8 0-40l289.6-281.6c12.8-12.8 30.4-19.2 46.4-19.2 17.6 0 33.6 6.4 46.4 19.2l584 566.4c12.8 11.2 12.8 28.8 3.2 40z" />
<glyph unicode="&#xeb9f;" glyph-name="circle-plus" d="M681.6 540.8s-1.6 0 0 0h-140.8v140.8c0 16-12.8 27.2-28.8 27.2s-27.2-12.8-27.2-28.8v-140.8h-140.8c-16 0-27.2-12.8-27.2-28.8s12.8-27.2 28.8-27.2h140.8v-140.8c0-16 12.8-27.2 28.8-27.2s27.2 12.8 27.2 28.8v140.8h140.8c16 0 27.2 12.8 27.2 28.8-1.6 14.4-14.4 27.2-28.8 27.2zM512 1003.2c-272 0-491.2-219.2-491.2-491.2s219.2-492.8 491.2-492.8 492.8 220.8 492.8 492.8-220.8 491.2-492.8 491.2zM512 75.2c-240 0-435.2 196.8-435.2 436.8s195.2 435.2 435.2 435.2 436.8-195.2 436.8-435.2-196.8-436.8-436.8-436.8z" />
<glyph unicode="&#xeba4;" glyph-name="eye" d="M512 624c-62.4 0-112-51.2-112-112s51.2-112 112-112 112 51.2 112 112-49.6 112-112 112zM512 456c-30.4 0-56 25.6-56 56s25.6 56 56 56 56-25.6 56-56-25.6-56-56-56zM998.4 531.2c-105.6 166.4-288 265.6-486.4 265.6s-380.8-99.2-486.4-265.6c-6.4-11.2-6.4-25.6 0-36.8 105.6-166.4 288-265.6 486.4-265.6s380.8 99.2 486.4 265.6c8 11.2 8 25.6 0 36.8zM512 284.8c-174.4 0-336 84.8-432 228.8 96 142.4 257.6 227.2 432 227.2s336-84.8 432-227.2c-96-144-257.6-228.8-432-228.8z" />
<glyph unicode="&#xebac;" glyph-name="heart-filled" d="M512 102.4c-12.8 0-25.6 4.8-35.2 12.8-36.8 32-73.6 62.4-105.6 89.6-92.8 78.4-174.4 147.2-230.4 214.4-64 76.8-92.8 147.2-92.8 225.6 0 75.2 25.6 145.6 73.6 196.8s113.6 80 185.6 80c52.8 0 102.4-17.6 145.6-49.6 17.6-12.8 32-28.8 46.4-46.4 6.4-8 17.6-8 24 0 14.4 17.6 30.4 32 46.4 46.4 43.2 33.6 92.8 49.6 145.6 49.6 72 0 137.6-28.8 185.6-80s73.6-121.6 73.6-196.8c0-78.4-28.8-148.8-92.8-224-56-67.2-137.6-136-230.4-214.4-32-27.2-68.8-57.6-105.6-89.6-8-9.6-20.8-14.4-33.6-14.4z" />
<glyph unicode="&#xebb4;" glyph-name="info" d="M436.8 913.6c0-34.463 27.937-62.4 62.4-62.4s62.4 27.937 62.4 62.4v0c0 34.463-27.937 62.4-62.4 62.4s-62.4-27.937-62.4-62.4v0M619.2 75.2h-80v620.8c0 35.2-28.8 64-64 64h-72c-16 0-28.8-12.8-28.8-28.8s12.8-28.8 28.8-28.8h72c4.8 0 8-3.2 8-8v-619.2h-80c-16 0-28.8-12.8-28.8-28.8s12.8-28.8 28.8-28.8h216c16 0 28.8 12.8 28.8 28.8s-12.8 28.8-28.8 28.8z" />
<glyph unicode="&#xebbc;" glyph-name="howto" d="M220.8 891.2h-140.8c-33.6 0-60.8-27.2-60.8-60.8v-140.8c0-33.6 27.2-60.8 60.8-60.8h140.8c33.6 0 60.8 27.2 60.8 60.8v140.8c-1.6 33.6-28.8 60.8-60.8 60.8zM224 691.2c0-1.6-1.6-4.8-4.8-4.8h-139.2c-1.6 0-4.8 1.6-4.8 4.8v140.8c0 1.6 1.6 4.8 4.8 4.8h140.8c1.6 0 4.8-1.6 4.8-4.8v-140.8zM220.8 393.6h-140.8c-33.6 0-60.8-27.2-60.8-60.8v-140.8c0-33.6 27.2-60.8 60.8-60.8h140.8c33.6 0 60.8 27.2 60.8 60.8v140.8c-1.6 33.6-28.8 60.8-60.8 60.8zM224 193.6c0-1.6-1.6-4.8-4.8-4.8h-139.2c-1.6 0-4.8 1.6-4.8 4.8v140.8c0 1.6 1.6 4.8 4.8 4.8h140.8c1.6 0 4.8-1.6 4.8-4.8v-140.8zM457.6 803.2h518.4c16 0 28.8 12.8 28.8 28.8s-12.8 27.2-28.8 27.2h-518.4c-16 0-28.8-12.8-28.8-28.8s12.8-27.2 28.8-27.2zM976 718.4h-518.4c-16 0-28.8-12.8-28.8-28.8s12.8-28.8 28.8-28.8h518.4c16 0 28.8 12.8 28.8 28.8s-12.8 28.8-28.8 28.8zM976 361.6h-518.4c-16 0-28.8-12.8-28.8-28.8s12.8-28.8 28.8-28.8h518.4c16 0 28.8 12.8 28.8 28.8s-12.8 28.8-28.8 28.8zM976 220.8h-518.4c-16 0-28.8-12.8-28.8-28.8s12.8-28.8 28.8-28.8h518.4c16 0 28.8 12.8 28.8 28.8s-12.8 28.8-28.8 28.8z" />
<glyph unicode="&#xebbd;" glyph-name="faq" d="M187.2 974.4h-107.2c-33.6 0-60.8-27.2-60.8-60.8v-107.2c0-33.6 27.2-60.8 60.8-60.8h107.2c33.6 0 60.8 27.2 60.8 60.8v108.8c-1.6 33.6-28.8 59.2-60.8 59.2zM190.4 808c0-1.6-1.6-4.8-4.8-4.8h-105.6c-1.6 0-4.8 1.6-4.8 4.8v107.2c0 1.6 1.6 4.8 4.8 4.8h107.2c1.6 0 4.8-1.6 4.8-4.8v-107.2zM408 833.6h568c16 0 28.8 12.8 28.8 28.8s-12.8 27.2-28.8 27.2h-568c-16 0-28.8-12.8-28.8-28.8s12.8-27.2 28.8-27.2zM187.2 635.2h-107.2c-33.6 0-60.8-27.2-60.8-60.8v-107.2c0-33.6 27.2-60.8 60.8-60.8h107.2c33.6 0 60.8 27.2 60.8 60.8v107.2c-1.6 33.6-28.8 60.8-60.8 60.8zM190.4 467.2c0-1.6-1.6-4.8-4.8-4.8h-105.6c-1.6 0-4.8 1.6-4.8 4.8v107.2c0 1.6 1.6 4.8 4.8 4.8h107.2c1.6 0 4.8-1.6 4.8-4.8v-107.2zM976 548.8h-568c-16 0-28.8-12.8-28.8-28.8s12.8-28.8 28.8-28.8h568c16 0 28.8 12.8 28.8 28.8s-12.8 28.8-28.8 28.8zM187.2 276.8h-107.2c-33.6 0-60.8-27.2-60.8-60.8v-107.2c0-33.6 27.2-60.8 60.8-60.8h107.2c33.6 0 60.8 27.2 60.8 60.8v107.2c-1.6 33.6-28.8 60.8-60.8 60.8zM190.4 108.8c0-1.6-1.6-4.8-4.8-4.8h-105.6c-1.6 0-4.8 1.6-4.8 4.8v107.2c0 1.6 1.6 4.8 4.8 4.8h107.2c1.6 0 4.8-1.6 4.8-4.8v-107.2zM976 190.4h-568c-16 0-28.8-12.8-28.8-28.8s12.8-28.8 28.8-28.8h568c16 0 28.8 12.8 28.8 28.8s-12.8 28.8-28.8 28.8z" />
<glyph unicode="&#xebc8;" glyph-name="music" d="M979.2 897.6c-16 14.4-38.4 22.4-60.8 20.8l-571.2-43.2c-41.6-3.2-73.6-38.4-73.6-80v-491.2c-27.2 16-60.8 25.6-99.2 25.6-86.4 0-155.2-49.6-155.2-112s67.2-112 155.2-112 155.2 49.6 155.2 112v374.4l619.2 48v-291.2c-27.2 16-60.8 25.6-99.2 25.6-86.4 0-155.2-49.6-155.2-112s67.2-112 155.2-112 155.2 49.6 155.2 112v579.2c0 19.2-9.6 41.6-25.6 56zM174.4 161.6c-57.6 0-99.2 30.4-99.2 56s40 56 99.2 56 99.2-30.4 99.2-56-41.6-56-99.2-56zM849.6 203.2c-57.6 0-99.2 30.4-99.2 56s40 56 99.2 56 99.2-30.4 99.2-56-41.6-56-99.2-56zM329.6 795.2c0 12.8 9.6 22.4 22.4 24l572.8 43.2c6.4 0 11.2-1.6 16-6.4s8-11.2 8-17.6v-144l-619.2-48v148.8z" />
<glyph unicode="&#xebce;" glyph-name="plus" d="M976 539.2h-435.2v436.8c0 16-12.8 28.8-28.8 28.8s-27.2-12.8-27.2-28.8v-436.8h-436.8c-16 0-28.8-12.8-28.8-28.8s12.8-27.2 28.8-27.2h436.8v-435.2c0-16 12.8-28.8 28.8-28.8s28.8 12.8 28.8 28.8v435.2h433.6c16 0 28.8 12.8 28.8 28.8s-12.8 27.2-28.8 27.2z" />
<glyph unicode="&#xebd2;" glyph-name="help" d="M512 1003.2c-272 0-491.2-219.2-491.2-491.2s219.2-492.8 491.2-492.8 492.8 220.8 492.8 492.8-220.8 491.2-492.8 491.2zM512 75.2c-240 0-435.2 196.8-435.2 436.8s195.2 435.2 435.2 435.2 436.8-195.2 436.8-435.2-196.8-436.8-436.8-436.8zM539.2 833.6c-46.4 8-92.8-4.8-126.4-33.6-35.2-28.8-56-72-56-118.4 0-17.6 3.2-35.2 9.6-51.2 4.8-14.4 20.8-22.4 35.2-17.6s22.4 20.8 17.6 35.2c-3.2 11.2-6.4 20.8-6.4 33.6 0 28.8 12.8 56 35.2 75.2s51.2 27.2 81.6 20.8c40-6.4 72-40 78.4-78.4 8-46.4-16-91.2-59.2-108.8-40-16-65.6-56-65.6-102.4v-102.4c0-16 12.8-28.8 28.8-28.8s28.8 12.8 28.8 28.8v102.4c0 22.4 12.8 43.2 30.4 49.6 67.2 27.2 105.6 97.6 92.8 171.2-11.2 62.4-62.4 113.6-124.8 124.8zM513.6 275.2h-4.8c-16 0-28.8-12.8-28.8-28.8s12.8-28.8 28.8-28.8h4.8c16 0 28.8 12.8 28.8 28.8s-12.8 28.8-28.8 28.8z" />
<glyph unicode="&#xebe1;" glyph-name="instant-indexing" d="M403.2 19.2c-6.4 0-11.2 1.6-17.6 3.2-20.8 8-32 27.2-28.8 49.6l41.6 348.8-137.6-27.2c-19.2-3.2-38.4 4.8-48 20.8-11.2 16-9.6 36.8 1.6 52.8l369.6 516.8c12.8 17.6 35.2 24 56 16s32-28.8 28.8-49.6l-49.6-361.6 142.4 35.2c19.2 4.8 38.4-3.2 49.6-19.2s11.2-38.4-1.6-54.4l-371.2-512c-8-11.2-20.8-19.2-35.2-19.2zM408 480c11.2 0 24-4.8 32-12.8 11.2-9.6 16-25.6 14.4-40l-38.4-328 336 464-131.2-33.6c-14.4-3.2-30.4 0-43.2 11.2-11.2 11.2-17.6 25.6-14.4 41.6l46.4 339.2-339.2-467.2 128 25.6h9.6z" />
<glyph unicode="&#xebe8;" glyph-name="404" d="M977.6 352l-355.2 483.2c-25.6 35.2-67.2 56-110.4 56-44.8 0-84.8-20.8-110.4-56l-355.2-483.2c-30.4-41.6-35.2-97.6-11.2-144s70.4-75.2 123.2-75.2h708.8c52.8 0 99.2 28.8 123.2 75.2s17.6 102.4-12.8 144zM939.2 233.6c-14.4-27.2-41.6-44.8-72-44.8h-708.8c-32 0-59.2 16-72 44.8-14.4 27.2-11.2 59.2 6.4 84.8l353.6 483.2c16 20.8 40 33.6 65.6 33.6s49.6-12.8 65.6-33.6l353.6-483.2c19.2-25.6 22.4-56 8-84.8zM512 416c16 0 28.8 12.8 28.8 28.8v179.2c0 16-12.8 28.8-28.8 28.8s-28.8-12.8-28.8-28.8v-180.8c0-14.4 12.8-27.2 28.8-27.2zM512 363.2c-25.6 0-46.4-20.8-46.4-46.4s20.8-46.4 46.4-46.4c25.6 0 46.4 20.8 46.4 46.4s-20.8 46.4-46.4 46.4z" />
<glyph unicode="&#xebea;" glyph-name="cross" d="M552 512l443.2 444.8c11.2 11.2 11.2 28.8 0 40s-28.8 11.2-40 0l-443.2-444.8-444.8 443.2c-11.2 11.2-28.8 11.2-40 0s-11.2-28.8 0-40l444.8-443.2-443.2-444.8c-11.2-11.2-11.2-28.8 0-40 4.8-4.8 12.8-8 19.2-8s14.4 3.2 19.2 8l444.8 444.8 443.2-444.8c4.8-4.8 12.8-8 19.2-8s14.4 3.2 19.2 8c11.2 11.2 11.2 28.8 0 40l-441.6 444.8z" />
<glyph unicode="&#xebf7;" glyph-name="fact-check" d="M913.6 913.6h-803.2c-49.6 0-91.2-40-91.2-91.2v-462.4c0-49.6 40-91.2 91.2-91.2h243.2l134.4-148.8c4.8-6.4 12.8-9.6 20.8-9.6s16 3.2 20.8 9.6l137.6 150.4h244.8c49.6 0 91.2 40 91.2 91.2v460.8c1.6 49.6-40 91.2-89.6 91.2zM948.8 360c0-19.2-16-35.2-35.2-35.2h-257.6c-8 0-16-3.2-20.8-9.6l-126.4-136-123.2 136c-4.8 6.4-12.8 9.6-20.8 9.6h-256c-19.2 0-35.2 16-35.2 35.2v462.4c0 19.2 16 35.2 35.2 35.2h803.2c19.2 0 35.2-16 35.2-35.2v-462.4zM627.2 689.6l-169.6-171.2-60.8 60.8c-11.2 11.2-28.8 11.2-40 0s-11.2-28.8 0-40l80-80c4.8-4.8 12.8-8 19.2-8s14.4 3.2 19.2 8l190.4 190.4c11.2 11.2 11.2 28.8 0 40-9.6 11.2-27.2 11.2-38.4 0z" />
<glyph unicode="&#xec3b;" glyph-name="recipe" d="M809.6 784c-27.2 0-54.4-6.4-80-17.6-8 118.4-104 211.2-219.2 211.2s-211.2-92.8-219.2-209.6c-24 9.6-49.6 16-75.2 16-108.8 0-195.2-89.6-195.2-201.6 0-100.8 72-185.6 166.4-198.4v-243.2c0-28.8 12.8-54.4 33.6-72s49.6-25.6 76.8-20.8l57.6 9.6c104 17.6 208 17.6 312 0l57.6-9.6c4.8-1.6 9.6-1.6 16-1.6 22.4 0 44.8 8 62.4 22.4 20.8 17.6 33.6 44.8 33.6 72v243.2c94.4 14.4 166.4 97.6 166.4 198.4 1.6 112-86.4 201.6-193.6 201.6zM766.4 112c-9.6-8-20.8-11.2-32-9.6l-57.6 9.6c-54.4 9.6-110.4 12.8-164.8 12.8s-110.4-4.8-164.8-12.8l-57.6-9.6c-11.2-1.6-22.4 1.6-32 9.6s-14.4 19.2-14.4 30.4v84.8l113.6 19.2c104 17.6 208 17.6 312 0l113.6-19.2v-84.8c-1.6-12.8-6.4-24-16-30.4zM809.6 438.4c-16 0-28.8-12.8-28.8-28.8v-126.4l-104 17.6c-1.6 0-4.8 0-6.4 1.6v129.6c0 16-12.8 28.8-28.8 28.8s-27.2-12.8-27.2-28.8v-123.2c-67.2 6.4-136 6.4-203.2 0v123.2c0 16-12.8 28.8-28.8 28.8s-28.8-12.8-28.8-28.8v-131.2c-1.6 0-4.8 0-6.4-1.6l-104-17.6v126.4c0 16-12.8 28.8-28.8 28.8-76.8 0-139.2 65.6-139.2 145.6s62.4 145.6 139.2 145.6c32 0 62.4-11.2 86.4-32 9.6-8 22.4-8 32-3.2 9.6 6.4 16 17.6 12.8 28.8-1.6 8-1.6 17.6-1.6 28.8 0 94.4 73.6 171.2 164.8 171.2s164.8-76.8 164.8-171.2c0-11.2-1.6-22.4-3.2-32-1.6-11.2 3.2-24 14.4-30.4s24-4.8 32 3.2c25.6 24 57.6 36.8 91.2 36.8 76.8 0 139.2-65.6 139.2-145.6 1.6-80-62.4-144-137.6-144z" />
<glyph unicode="&#xec56;" glyph-name="restaurant" d="M958.4 734.4l-131.2 232c-12.8 22.4-36.8 36.8-62.4 36.8h-505.6c-25.6 0-49.6-14.4-62.4-36.8l-131.2-232c0-1.6-1.6-1.6-1.6-3.2-1.6-3.2-1.6-6.4-1.6-9.6v-628.8c0-40 32-72 72-72h753.6c40 0 72 32 72 72v627.2c1.6 4.8 0 9.6-1.6 14.4zM272 694.4c-3.2-40-36.8-70.4-76.8-70.4s-73.6 30.4-76.8 70.4h153.6zM483.2 694.4c-3.2-40-36.8-70.4-76.8-70.4s-73.6 30.4-76.8 70.4h153.6zM694.4 694.4c-3.2-40-36.8-70.4-76.8-70.4s-73.6 30.4-76.8 70.4h153.6zM904 694.4c-3.2-40-36.8-70.4-76.8-70.4s-73.6 30.4-76.8 70.4h153.6zM246.4 939.2c3.2 4.8 8 8 14.4 8h504c6.4 0 11.2-3.2 14.4-8l107.2-190.4h-745.6l105.6 190.4zM288 75.2v265.6c0 9.6 8 16 16 16h80c9.6 0 16-8 16-16v-264h-112zM889.6 75.2h-433.6v265.6c0 40-32 72-72 72h-80c-40 0-72-32-72-72v-264h-96c-9.6 0-16 8-16 16v499.2c22.4-16 48-25.6 76.8-25.6 43.2 0 81.6 20.8 105.6 51.2 24-32 62.4-51.2 105.6-51.2s81.6 20.8 105.6 51.2c24-32 62.4-51.2 105.6-51.2s81.6 20.8 105.6 51.2c24-32 62.4-51.2 105.6-51.2 28.8 0 56 9.6 76.8 25.6v-500.8c-1.6-8-9.6-16-17.6-16zM742.4 412.8h-81.6c-27.2 0-49.6-22.4-49.6-49.6v-81.6c0-27.2 22.4-49.6 49.6-49.6h81.6c27.2 0 49.6 22.4 49.6 49.6v81.6c0 27.2-22.4 49.6-49.6 49.6zM736 286.4h-70.4v70.4h70.4v-70.4z" />
<glyph unicode="&#xec64;" glyph-name="post-format" d="M857.6 844.8l-156.8 134.4c-19.2 16-43.2 25.6-67.2 25.6h-400c-57.6 0-104-46.4-104-104v-777.6c0-57.6 46.4-104 104-104h206.4c16 0 28.8 12.8 28.8 28.8s-12.8 28.8-28.8 28.8h-206.4c-25.6 0-48 20.8-48 48v776c0 25.6 20.8 48 48 48h400c11.2 0 22.4-4.8 30.4-11.2l156.8-134.4c11.2-9.6 16-22.4 16-36.8v-675.2c0-8-6.4-16-16-16-16 0-27.2-12.8-27.2-28.8s12.8-28.8 28.8-28.8c40 0 72 32 72 72v676.8c0 30.4-14.4 59.2-36.8 78.4zM308.8 779.2h220.8c16 0 28.8 12.8 28.8 28.8s-12.8 28.8-28.8 28.8h-220.8c-16 0-28.8-12.8-28.8-28.8s12.8-28.8 28.8-28.8zM308.8 636.8h377.6c16 0 28.8 12.8 28.8 28.8s-12.8 28.8-28.8 28.8h-377.6c-16 0-28.8-12.8-28.8-28.8s12.8-28.8 28.8-28.8zM308.8 499.2h377.6c16 0 28.8 12.8 28.8 28.8s-12.8 28.8-28.8 28.8h-377.6c-16 0-28.8-12.8-28.8-28.8s12.8-28.8 28.8-28.8zM627.2 425.6c-68.8 0-126.4-56-126.4-126.4 0-36.8 16-72 43.2-94.4v-156.8c0-9.6 4.8-19.2 14.4-24 4.8-3.2 9.6-3.2 14.4-3.2s9.6 1.6 14.4 3.2l41.6 24 41.6-24c8-4.8 19.2-4.8 27.2 0s14.4 14.4 14.4 24v156.8c25.6 22.4 43.2 56 43.2 94.4-1.6 70.4-57.6 126.4-128 126.4zM627.2 369.6c38.4 0 70.4-32 70.4-70.4s-32-70.4-70.4-70.4-70.4 32-70.4 70.4 32 70.4 70.4 70.4zM654.4 96l-12.8 8c-8 4.8-19.2 4.8-27.2 0l-14.4-8v80c8-1.6 17.6-3.2 27.2-3.2s17.6 1.6 27.2 3.2v-80z" />
<glyph unicode="&#xec66;" glyph-name="service" d="M892.8 937.6h-761.6c-60.8 0-110.4-49.6-110.4-110.4v-326.4c0-60.8 49.6-110.4 110.4-110.4h1.6c16-44.8 60.8-78.4 112-78.4s96 32 112 78.4h310.4c16-44.8 60.8-78.4 112-78.4s96 32 112 78.4h1.6c60.8 0 110.4 49.6 110.4 110.4v326.4c1.6 60.8-48 110.4-110.4 110.4zM244.8 369.6c-33.6 0-62.4 25.6-62.4 57.6s27.2 57.6 62.4 57.6 62.4-25.6 62.4-57.6-28.8-57.6-62.4-57.6zM779.2 369.6c-33.6 0-62.4 25.6-62.4 57.6s27.2 57.6 62.4 57.6 62.4-25.6 62.4-57.6-27.2-57.6-62.4-57.6zM948.8 500.8c0-28.8-22.4-52.8-52.8-54.4-9.6 52.8-57.6 94.4-116.8 94.4-57.6 0-107.2-40-116.8-94.4h-300.8c-9.6 52.8-57.6 94.4-116.8 94.4-57.6 0-107.2-40-116.8-94.4-28.8 1.6-52.8 24-52.8 54.4v326.4c0 30.4 24 54.4 54.4 54.4h763.2c30.4 0 54.4-24 54.4-54.4v-326.4zM244.8 249.6c-89.6 0-174.4-44.8-220.8-118.4-8-12.8-4.8-30.4 8-38.4s30.4-4.8 38.4 8c36.8 57.6 102.4 92.8 172.8 92.8 72 0 136-35.2 172.8-92.8 4.8-8 14.4-12.8 24-12.8 4.8 0 9.6 1.6 14.4 4.8 12.8 8 17.6 25.6 8 38.4-44.8 73.6-126.4 118.4-217.6 118.4zM779.2 249.6c-89.6 0-174.4-44.8-220.8-118.4-8-12.8-4.8-30.4 8-38.4s30.4-4.8 38.4 8c36.8 57.6 102.4 92.8 172.8 92.8s136-35.2 172.8-92.8c4.8-8 14.4-12.8 24-12.8 4.8 0 9.6 1.6 14.4 4.8 12.8 8 17.6 25.6 8 38.4-44.8 73.6-126.4 118.4-217.6 118.4z" />
<glyph unicode="&#xec70;" glyph-name="course" d="M985.6 792l-464 168c-6.4 1.6-12.8 1.6-19.2 0l-464-168c-11.2-4.8-19.2-14.4-19.2-25.6s8-22.4 19.2-25.6l128-46.4v-296c0-12.8 8-22.4 19.2-27.2 137.6-46.4 241.6-65.6 337.6-65.6 48 0 94.4 4.8 140.8 14.4v-48c-44.8-12.8-78.4-52.8-78.4-102.4 0-57.6 48-105.6 105.6-105.6s105.6 48 105.6 105.6c0 48-33.6 89.6-78.4 102.4v62.4c38.4 9.6 76.8 24 120 38.4 11.2 4.8 19.2 14.4 19.2 25.6v294.4l128 46.4c11.2 4.8 19.2 14.4 19.2 25.6s-8 22.4-19.2 27.2zM742.4 169.6c0-27.2-22.4-49.6-49.6-49.6s-49.6 22.4-49.6 49.6 22.4 49.6 49.6 49.6c27.2 0 49.6-22.4 49.6-49.6zM222.4 417.6v254.4l280-100.8c3.2-1.6 6.4-1.6 9.6-1.6s6.4 0 9.6 1.6l142.4 51.2v-246.4c-129.6-27.2-252.8-19.2-441.6 41.6zM801.6 417.6c-28.8-9.6-56-19.2-81.6-25.6v251.2l81.6 30.4v-256zM696 694.4l-120 44.8c-14.4 4.8-30.4-1.6-36.8-16-4.8-14.4 1.6-30.4 16-36.8l57.6-22.4-100.8-36.8-380.8 137.6 380.8 137.6 380.8-137.6-196.8-70.4z" />
<glyph unicode="&#xec73;" glyph-name="book" d="M929.6 876.8h-364.8c-20.8 0-38.4-8-52.8-19.2-14.4 12.8-32 19.2-52.8 19.2h-364.8c-40 0-73.6-33.6-73.6-73.6v-540.8c0-40 33.6-73.6 73.6-73.6h390.4v-14.4c0-16 12.8-28.8 28.8-28.8s28.8 12.8 28.8 28.8v14.4h390.4c40 0 73.6 33.6 73.6 73.6v540.8c-1.6 41.6-35.2 73.6-76.8 73.6zM94.4 244.8c-9.6 0-17.6 8-17.6 17.6v540.8c0 9.6 8 17.6 17.6 17.6h366.4c12.8 0 24-11.2 24-24v-552h-390.4zM948.8 262.4c0-9.6-8-17.6-17.6-17.6h-390.4v552c0 12.8 11.2 24 24 24h364.8c9.6 0 17.6-8 17.6-17.6v-540.8zM217.6 659.2h123.2c16 0 28.8 12.8 28.8 28.8s-12.8 28.8-28.8 28.8h-123.2c-16 0-28.8-12.8-28.8-28.8s14.4-28.8 28.8-28.8zM678.4 659.2h123.2c16 0 28.8 12.8 28.8 28.8s-12.8 28.8-28.8 28.8h-123.2c-16 0-28.8-12.8-28.8-28.8s12.8-28.8 28.8-28.8zM803.2 579.2h-123.2c-16 0-28.8-12.8-28.8-28.8s12.8-28.8 28.8-28.8h123.2c16 0 28.8 12.8 28.8 28.8s-12.8 28.8-28.8 28.8zM344 579.2h-123.2c-16 0-28.8-12.8-28.8-28.8s12.8-28.8 28.8-28.8h123.2c16 0 28.8 12.8 28.8 28.8s-14.4 28.8-28.8 28.8zM344 432h-123.2c-16 0-28.8-12.8-28.8-28.8s12.8-28.8 28.8-28.8h123.2c16 0 28.8 12.8 28.8 28.8s-14.4 28.8-28.8 28.8zM803.2 432h-123.2c-16 0-28.8-12.8-28.8-28.8s12.8-28.8 28.8-28.8h123.2c16 0 28.8 12.8 28.8 28.8s-12.8 28.8-28.8 28.8z" />
<glyph unicode="&#xec76;" glyph-name="social" d="M1003.2 822.4c-3.2 28.8-16 56-40 75.2-22.4 19.2-51.2 27.2-81.6 25.6-28.8-3.2-56-16-75.2-40s-25.6-51.2-22.4-80c0-8 1.6-16 4.8-22.4l-158.4-92.8c-30.4 48-83.2 81.6-144 81.6-48 0-91.2-20.8-123.2-52.8l-136 123.2c9.6 16 14.4 35.2 14.4 54.4 0 60.8-49.6 110.4-110.4 110.4s-110.4-51.2-110.4-112 49.6-110.4 110.4-110.4c20.8 0 40 6.4 56 16l142.4-129.6c-9.6-20.8-16-44.8-16-70.4 0-92.8 76.8-169.6 169.6-169.6h14.4l36.8-136c-44.8-25.6-75.2-72-75.2-128 0-80 65.6-145.6 145.6-145.6s145.6 65.6 145.6 145.6-65.6 145.6-145.6 145.6c-6.4 0-11.2 0-17.6-1.6l-36.8 132.8c59.2 25.6 100.8 86.4 100.8 155.2 0 12.8-1.6 24-3.2 35.2l168 97.6 4.8-4.8c20.8-16 44.8-25.6 70.4-25.6h11.2c28.8 3.2 56 16 75.2 40s28.8 54.4 25.6 83.2zM131.2 838.4c-30.4 0-54.4 24-54.4 54.4s24 54.4 54.4 54.4 54.4-24 54.4-54.4-25.6-54.4-54.4-54.4zM696 166.4c0-49.6-40-89.6-89.6-89.6s-89.6 40-89.6 89.6 40 89.6 89.6 89.6 89.6-40 89.6-89.6zM484.8 484.8c-62.4 0-113.6 51.2-113.6 113.6s51.2 113.6 113.6 113.6 113.6-51.2 113.6-113.6-51.2-113.6-113.6-113.6zM936 777.6c-9.6-11.2-22.4-17.6-36.8-19.2s-28.8 3.2-40 12.8c-11.2 9.6-17.6 22.4-19.2 36.8s3.2 28.8 12.8 40c9.6 11.2 22.4 17.6 36.8 19.2h4.8c12.8 0 25.6-4.8 35.2-12.8 11.2-9.6 17.6-22.4 19.2-36.8 0-14.4-4.8-28.8-12.8-40z" />
<glyph unicode="&#xec78;" glyph-name="edit" d="M1003.2 844.8c0 11.2-4.8 20.8-12.8 28.8l-59.2 59.2c-17.6 17.6-35.2 35.2-52.8 54.4-6.4 8-16 14.4-25.6 16-11.2 1.6-24-1.6-33.6-9.6l-115.2-115.2h-564.8c-65.6 0-118.4-52.8-118.4-118.4v-622.4c0-65.6 52.8-118.4 118.4-118.4h622.4c65.6 0 118.4 52.8 118.4 118.4v568l110.4 110.4c8 8 12.8 19.2 12.8 28.8zM532.8 438.4c-1.6-1.6-4.8-3.2-6.4-4.8l-137.6-46.4 44.8 137.6c1.6 3.2 1.6 4.8 4.8 6.4l304 304 96-94.4-305.6-302.4zM824 137.6c0-33.6-27.2-62.4-62.4-62.4h-622.4c-33.6 0-62.4 27.2-62.4 62.4v624c0 33.6 27.2 62.4 62.4 62.4h510.4l-251.2-251.2c-8-8-14.4-17.6-17.6-28.8l-60.8-185.6c-3.2-9.6-1.6-19.2 3.2-27.2 4.8-6.4 11.2-12.8 25.6-12.8h4.8l190.4 62.4c11.2 3.2 20.8 9.6 28.8 17.6l252.8 251.2v-512zM876.8 782.4l-96 94.4 64 64 46.4-46.4c16-16 32-32 48-49.6l-62.4-62.4z" />
<glyph unicode="&#xec86;" glyph-name="page" d="M862.4 862.4h-46.4v22.4c0 65.6-52.8 118.4-118.4 118.4h-456c-65.6 0-118.4-52.8-118.4-118.4v-542.4c0-19.2 8-36.8 20.8-51.2l243.2-249.6c14.4-14.4 33.6-22.4 52.8-22.4h302.4c40 0 73.6 33.6 73.6 73.6v17.6l80 163.2c1.6 3.2 3.2 8 3.2 12.8l1.6 537.6c0 19.2-17.6 36.8-38.4 38.4zM844.8 728h-112v80c36.8 0 73.6 0 112-1.6v-78.4zM384 124.8l-166.4 171.2h166.4v-171.2zM742.4 75.2h-302.4v238.4c0 20.8-17.6 38.4-38.4 38.4h-222.4v532.8c0 35.2 28.8 62.4 62.4 62.4h454.4c35.2 0 62.4-28.8 62.4-62.4v-22.4h-43.2c-22.4 0-41.6-17.6-41.6-38.4l-1.6-537.6c0-4.8 1.6-8 3.2-12.8l81.6-163.2v-17.6c3.2-9.6-4.8-17.6-14.4-17.6zM787.2 180.8l-56 112v379.2h112v-379.2l-56-112z" />
<glyph unicode="&#xecc9;" glyph-name="direction" d="M940.8 747.2l-80 102.4c-14.4 17.6-35.2 28.8-57.6 28.8h-384v97.6c0 16-12.8 28.8-28.8 28.8s-27.2-12.8-27.2-28.8v-99.2h-224c-40 0-72-32-72-72v-206.4c0-40 32-72 72-72h222.4v-478.4c0-16 12.8-28.8 28.8-28.8s28.8 12.8 28.8 28.8v478.4h385.6c22.4 0 43.2 9.6 57.6 28.8l80 102.4c19.2 25.6 19.2 62.4-1.6 89.6zM897.6 691.2l-80-102.4c-3.2-4.8-8-6.4-12.8-6.4h-665.6c-9.6 0-16 8-16 16v206.4c0 9.6 8 16 16 16h664c4.8 0 9.6-1.6 12.8-6.4l80-102.4c6.4-6.4 6.4-14.4 1.6-20.8z" />
<glyph unicode="&#xece7;" glyph-name="stories" d="M961.6 406.4l-64 40c-12.8 8-30.4 4.8-38.4-8s-4.8-30.4 8-38.4l56-35.2-411.2-260.8-411.2 259.2 56 35.2c12.8 8 17.6 25.6 8 38.4-8 12.8-25.6 17.6-38.4 8l-64-40c-14.4-9.6-24-25.6-24-41.6 0-17.6 8-33.6 24-41.6l422.4-265.6c8-4.8 17.6-8 27.2-8s19.2 3.2 27.2 8l422.4 265.6c14.4 9.6 24 25.6 24 41.6-1.6 17.6-9.6 33.6-24 43.2zM422.4 387.2l75.2-46.4c4.8-3.2 9.6-4.8 14.4-4.8s9.6 1.6 14.4 4.8l75.2 46.4c12.8 8 17.6 25.6 8 38.4-8 12.8-25.6 17.6-38.4 8l-59.2-36.8-59.2 36.8c-12.8 8-30.4 4.8-38.4-8-9.6-12.8-4.8-30.4 8-38.4zM350.4 499.2l-112 70.4c-12.8 8-30.4 4.8-38.4-8s-4.8-30.4 8-38.4l112-70.4c6.4-4.8 11.2-4.8 16-4.8 9.6 0 17.6 4.8 24 12.8 8 12.8 3.2 30.4-9.6 38.4zM123.2 580.8c9.6 0 17.6 4.8 24 12.8 8 12.8 4.8 30.4-8 38.4l-38.4 24 36.8 22.4c12.8 8 17.6 25.6 8 38.4-8 12.8-25.6 17.6-38.4 8l-75.2-46.4c-8-4.8-12.8-14.4-12.8-24s4.8-19.2 12.8-24l75.2-46.4c4.8-1.6 9.6-3.2 16-3.2zM224 739.2c4.8 0 9.6 1.6 14.4 4.8l112 70.4c12.8 8 17.6 25.6 8 38.4s-25.6 17.6-38.4 8l-112-70.4c-12.8-8-17.6-25.6-8-38.4 6.4-8 14.4-12.8 24-12.8zM452.8 878.4l59.2 36.8 59.2-36.8c4.8-3.2 9.6-4.8 14.4-4.8 9.6 0 19.2 4.8 24 12.8 8 12.8 4.8 30.4-8 38.4l-75.2 46.4c-9.6 6.4-20.8 6.4-30.4 0l-75.2-46.4c-12.8-8-17.6-25.6-8-38.4s27.2-17.6 40-8zM673.6 814.4l112-70.4c4.8-3.2 9.6-4.8 14.4-4.8 9.6 0 19.2 4.8 24 12.8 8 12.8 4.8 30.4-8 38.4l-112 70.4c-12.8 8-30.4 4.8-38.4-8-9.6-12.8-4.8-30.4 8-38.4zM990.4 680l-75.2 46.4c-12.8 8-30.4 4.8-38.4-8s-4.8-30.4 8-38.4l36.8-22.4-36.8-22.4c-12.8-8-17.6-25.6-8-38.4 4.8-8 14.4-12.8 24-12.8 4.8 0 9.6 1.6 14.4 4.8l75.2 46.4c8 4.8 12.8 14.4 12.8 24s-4.8 16-12.8 20.8zM688 448c4.8 0 9.6 1.6 14.4 4.8l112 70.4c12.8 8 17.6 25.6 8 38.4-8 12.8-25.6 17.6-38.4 8l-112-70.4c-12.8-8-17.6-25.6-8-38.4 6.4-9.6 14.4-12.8 24-12.8z" />
<glyph unicode="&#xeceb;" glyph-name="acf" d="M912 1003.2h-800c-51.2 0-91.2-40-91.2-91.2v-435.2c0-51.2 40-92.8 91.2-92.8h800c51.2 0 92.8 41.6 92.8 92.8v435.2c0 51.2-41.6 91.2-92.8 91.2zM948.8 476.8c0-19.2-16-36.8-36.8-36.8h-800c-19.2 0-36.8 16-36.8 36.8v435.2c0 19.2 16 36.8 36.8 36.8h800c19.2 0 36.8-16 36.8-36.8v-435.2zM886.4 249.6h-748.8c-16 0-28.8-12.8-28.8-28.8s12.8-28.8 28.8-28.8h748.8c16 0 28.8 12.8 28.8 28.8s-12.8 28.8-28.8 28.8zM886.4 75.2h-748.8c-16 0-28.8-12.8-28.8-28.8s12.8-28.8 28.8-28.8h748.8c16 0 28.8 12.8 28.8 28.8s-12.8 28.8-28.8 28.8z" />
<glyph unicode="&#xecf8;" glyph-name="dataset" d="M934.4 392h-140.8c-6.4 0-11.2 3.2-12.8 8l-17.6 43.2v380.8c0 99.2-187.2 150.4-371.2 150.4-182.4 0-368-51.2-371.2-148.8v-435.2c0-97.6 192-152 371.2-152 32 0 64 1.6 94.4 4.8 1.6 0 3.2 0 3.2 1.6v-126.4c0-38.4 32-70.4 70.4-70.4h374.4c38.4 0 70.4 32 70.4 70.4v204.8c0 38.4-32 68.8-70.4 68.8zM494.4 441.6c-33.6-3.2-67.2-6.4-102.4-6.4-193.6 0-315.2 56-315.2 94.4v54.4c68.8-44.8 193.6-67.2 315.2-67.2 123.2 0 246.4 22.4 315.2 67.2v-97.6h-148.8c-30.4 1.6-56-17.6-64-44.8zM707.2 668.8c-1.6-38.4-123.2-94.4-315.2-94.4-193.6 0-315.2 56-315.2 94.4v72c68.8-44.8 192-68.8 315.2-68.8s246.4 22.4 315.2 67.2v-70.4zM392 918.4c192 0 315.2-56 315.2-94.4-1.6-38.4-123.2-94.4-315.2-94.4-193.6 0-315.2 56-315.2 94.4s121.6 94.4 315.2 94.4zM480 300.8c-28.8-3.2-57.6-4.8-88-4.8-190.4 0-315.2 57.6-315.2 96v54.4c68.8-44.8 193.6-67.2 315.2-67.2 33.6 0 65.6 1.6 97.6 4.8v-84.8c-3.2 1.6-6.4 1.6-9.6 1.6zM948.8 120c0-8-6.4-14.4-14.4-14.4h-376c-8 0-14.4 6.4-14.4 14.4v299.2c0 8 6.4 14.4 14.4 14.4h140.8c6.4 0 11.2-3.2 12.8-8l17.6-43.2c11.2-27.2 36.8-43.2 64-43.2h140.8c8 0 14.4-6.4 14.4-14.4v-204.8z" />
<glyph unicode="&#xed0d;" glyph-name="home" d="M891.2 587.2c-16 0-28.8-12.8-28.8-28.8v-436.8c0-22.4-17.6-40-40-40h-158.4v286.4c0 51.2-41.6 92.8-92.8 92.8h-121.6c-51.2 0-92.8-41.6-92.8-92.8v-284.8h-158.4c-22.4 0-40 17.6-40 40v436.8c0 16-12.8 28.8-28.8 28.8s-24-14.4-24-28.8v-436.8c0-52.8 43.2-96 96-96h624c52.8 0 96 43.2 96 96v436.8c-3.2 14.4-16 27.2-30.4 27.2zM416 83.2v284.8c0 19.2 16 36.8 36.8 36.8h121.6c19.2 0 36.8-16 36.8-36.8v-284.8h-195.2zM990.4 707.2l-427.2 275.2c-32 20.8-72 20.8-104 0l-425.6-275.2c-12.8-8-16-25.6-8-38.4s25.6-16 38.4-8l427.2 273.6c12.8 8 30.4 8 43.2 0l427.2-275.2c4.8-3.2 9.6-4.8 14.4-4.8 9.6 0 17.6 4.8 24 12.8 8 14.4 4.8 30.4-9.6 40z" />
<glyph unicode="&#xed1f;" glyph-name="toolbox" d="M880 793.6h-171.2v56c0 62.4-51.2 112-112 112h-169.6c-62.4 0-112-51.2-112-112v-56h-171.2c-68.8 0-124.8-56-124.8-124.8v-156.8c0-16 12.8-28.8 28.8-28.8h14.4v-304c0-65.6 52.8-118.4 118.4-118.4h662.4c65.6 0 118.4 52.8 118.4 118.4v304h14.4c16 0 28.8 12.8 28.8 28.8v156.8c0 68.8-56 124.8-124.8 124.8zM371.2 849.6c0 30.4 25.6 56 56 56h168c30.4 0 56-25.6 56-56v-56h-280v56zM76.8 668.8c0 36.8 30.4 68.8 68.8 68.8h736c36.8 0 68.8-30.4 68.8-68.8v-129.6h-873.6v129.6zM905.6 180.8c0-35.2-28.8-62.4-62.4-62.4h-662.4c-35.2 0-62.4 28.8-62.4 62.4v304h196.8v-99.2c0-16 12.8-28.8 28.8-28.8s28.8 12.8 28.8 28.8v99.2h281.6v-99.2c0-16 12.8-28.8 28.8-28.8s28.8 12.8 28.8 28.8v99.2h196.8v-304z" />
<glyph unicode="&#xed35;" glyph-name="comments" d="M292.8 657.6c-54.4 0-99.2-44.8-99.2-99.2s44.8-99.2 99.2-99.2 99.2 44.8 99.2 99.2c0 54.4-44.8 99.2-99.2 99.2zM292.8 515.2c-24 0-43.2 19.2-43.2 43.2s19.2 43.2 43.2 43.2 43.2-19.2 43.2-43.2c0-24-20.8-43.2-43.2-43.2zM512 657.6c-54.4 0-99.2-44.8-99.2-99.2s44.8-99.2 99.2-99.2 99.2 44.8 99.2 99.2c0 54.4-44.8 99.2-99.2 99.2zM512 515.2c-24 0-43.2 19.2-43.2 43.2s19.2 43.2 43.2 43.2 43.2-19.2 43.2-43.2c0-24-19.2-43.2-43.2-43.2zM732.8 657.6c-54.4 0-99.2-44.8-99.2-99.2s44.8-99.2 99.2-99.2 99.2 44.8 99.2 99.2c0 54.4-44.8 99.2-99.2 99.2zM732.8 515.2c-24 0-43.2 19.2-43.2 43.2s19.2 43.2 43.2 43.2 43.2-19.2 43.2-43.2c0-24-20.8-43.2-43.2-43.2zM908.8 864h-793.6c-52.8 0-96-43.2-96-96v-512c0-35.2 17.6-65.6 48-83.2 14.4-8 32-12.8 48-12.8s32 4.8 48 12.8l140.8 81.6c6.4 3.2 12.8 4.8 19.2 4.8h584c52.8 0 96 43.2 96 96v412.8c1.6 52.8-41.6 96-94.4 96zM948.8 355.2c0-22.4-17.6-40-40-40h-584c-16 0-33.6-4.8-48-12.8l-140.8-81.6c-12.8-6.4-27.2-6.4-40 0s-19.2 19.2-19.2 33.6v513.6c0 22.4 17.6 40 40 40h793.6c22.4 0 40-17.6 40-40v-412.8z" />
<glyph unicode="&#xed3a;" glyph-name="job" d="M947.2 977.6c-30.4 24-68.8 32-107.2 22.4l-564.8-139.2h-113.6c-72 0-131.2-59.2-131.2-131.2v-243.2c0-60.8 40-110.4 96-126.4l70.4-284.8c8-33.6 36.8-56 72-56h30.4c22.4 0 43.2 9.6 57.6 27.2s19.2 40 14.4 62.4l-54.4 235.2 524.8-128c9.6-3.2 20.8-3.2 30.4-3.2 27.2 0 54.4 9.6 76.8 27.2 30.4 24 46.4 57.6 46.4 96v545.6c-1.6 38.4-19.2 72-48 96zM305.6 811.2l216 52.8v-512l-216 52.8v406.4zM86.4 486.4v243.2c0 41.6 33.6 75.2 75.2 75.2h88v-393.6h-88c-41.6 0-75.2 33.6-75.2 75.2zM312 83.2c-1.6-3.2-6.4-6.4-14.4-6.4h-30.4c-8 0-14.4 4.8-17.6 12.8l-65.6 265.6h72l60.8-257.6c0-8-1.6-12.8-4.8-14.4zM937.6 334.4c0-19.2-9.6-38.4-25.6-51.2s-38.4-17.6-59.2-12.8l-275.2 67.2v540.8l275.2 67.2c20.8 4.8 41.6 0 59.2-12.8 16-12.8 25.6-30.4 25.6-51.2v-547.2z" />
<glyph unicode="&#xed4d;" glyph-name="post" d="M825.6 1003.2h-627.2c-51.2 0-91.2-40-91.2-91.2v-800c0-51.2 41.6-92.8 92.8-92.8h627.2c51.2 0 92.8 41.6 92.8 92.8v800c-3.2 51.2-43.2 91.2-94.4 91.2zM860.8 112c0-19.2-16-36.8-36.8-36.8h-625.6c-19.2 0-36.8 16-36.8 36.8v800c0 19.2 16 36.8 36.8 36.8h627.2c19.2 0 36.8-16 36.8-36.8v-800zM736 878.4h-182.4c-24 0-44.8-19.2-44.8-44.8v-220.8c0-24 19.2-44.8 44.8-44.8h182.4c24 0 44.8 19.2 44.8 44.8v222.4c-1.6 24-20.8 43.2-44.8 43.2zM723.2 625.6h-156.8v196.8h156.8v-196.8zM275.2 795.2h121.6c16 0 28.8 12.8 28.8 28.8s-12.8 28.8-28.8 28.8h-121.6c-16 0-28.8-12.8-28.8-28.8s12.8-28.8 28.8-28.8zM275.2 584h121.6c16 0 28.8 12.8 28.8 28.8s-12.8 27.2-28.8 27.2h-121.6c-16 0-28.8-12.8-28.8-28.8s12.8-27.2 28.8-27.2zM752 430.4h-476.8c-16 0-28.8-12.8-28.8-28.8s12.8-28.8 28.8-28.8h476.8c16 0 28.8 12.8 28.8 28.8s-12.8 28.8-28.8 28.8zM752 219.2h-476.8c-16 0-28.8-12.8-28.8-28.8s12.8-28.8 28.8-28.8h476.8c16 0 28.8 12.8 28.8 28.8s-12.8 28.8-28.8 28.8z" />
<glyph unicode="&#xed64;" glyph-name="support" d="M489.6 723.2h-268.8c-16 0-28.8-12.8-28.8-28.8s12.8-28.8 28.8-28.8h268.8c16 0 28.8 12.8 28.8 28.8s-14.4 28.8-28.8 28.8zM220.8 540.8h123.2c16 0 28.8 12.8 28.8 28.8s-12.8 28.8-28.8 28.8h-123.2c-16 0-28.8-12.8-28.8-28.8s12.8-28.8 28.8-28.8zM427.2 470.4h-208c-16 0-28.8-12.8-28.8-28.8s12.8-28.8 28.8-28.8h208c16 0 28.8 12.8 28.8 28.8s-12.8 28.8-28.8 28.8zM774.4 747.2c-36.8 4.8-70.4-12.8-88-44.8-8-14.4-1.6-30.4 11.2-38.4 14.4-8 30.4-1.6 38.4 11.2 6.4 11.2 19.2 17.6 32 16 14.4-1.6 25.6-12.8 27.2-25.6s-4.8-24-16-28.8c-24-11.2-41.6-40-41.6-67.2v-20.8c0-16 12.8-28.8 28.8-28.8s28.8 12.8 28.8 28.8v20.8c0 4.8 6.4 14.4 11.2 16 32 16 51.2 49.6 46.4 86.4-6.4 40-38.4 70.4-78.4 75.2zM764.8 465.6c-24 0-41.6-19.2-41.6-41.6 0-24 19.2-41.6 41.6-41.6 24 0 41.6 19.2 41.6 41.6 1.6 22.4-17.6 41.6-41.6 41.6zM884.8 873.6h-745.6c-65.6 0-118.4-52.8-118.4-118.4v-532.8c0-25.6 12.8-48 35.2-60.8 11.2-6.4 22.4-9.6 35.2-9.6s24 3.2 35.2 9.6l185.6 107.2c1.6 1.6 4.8 1.6 6.4 1.6h568c65.6 0 118.4 52.8 118.4 118.4v364.8c0 65.6-54.4 120-120 120zM948.8 387.2c0-35.2-28.8-62.4-62.4-62.4h-569.6c-12.8 0-24-3.2-35.2-9.6l-184-107.2c-6.4-3.2-12.8-1.6-14.4 0s-6.4 4.8-6.4 12.8v532.8c0 35.2 28.8 62.4 62.4 62.4h745.6c35.2 0 62.4-28.8 62.4-62.4v-366.4z" />
<glyph unicode="&#xed71;" glyph-name="search-console" d="M928 1003.2h-832c-41.6 0-75.2-33.6-75.2-75.2v-832c0-41.6 33.6-76.8 76.8-76.8h832c41.6 0 76.8 33.6 76.8 76.8v832c-1.6 41.6-36.8 75.2-78.4 75.2zM948.8 96c0-11.2-9.6-20.8-20.8-20.8h-832c-11.2 0-20.8 9.6-20.8 20.8v305.6l142.4 120c14.4-9.6 32-14.4 49.6-14.4 28.8 0 54.4 12.8 70.4 33.6l78.4-44.8c-1.6-8-3.2-14.4-3.2-22.4 0-49.6 40-91.2 91.2-91.2s91.2 40 91.2 91.2v8l120 110.4c16-12.8 35.2-20.8 57.6-20.8 49.6 0 91.2 40 91.2 91.2s-41.6 89.6-92.8 89.6c-49.6 0-91.2-40-91.2-91.2 0-8 1.6-16 3.2-22.4l-113.6-104c-16 17.6-40 28.8-67.2 28.8-22.4 0-41.6-8-57.6-20.8l-86.4 52.8v3.2c0 49.6-40 91.2-91.2 91.2s-91.2-40-91.2-91.2c0-11.2 1.6-22.4 6.4-32l-107.2-91.2v452.8c0 11.2 9.6 20.8 20.8 20.8h832c11.2 0 20.8-9.6 20.8-20.8v-832zM268.8 563.2c-19.2 0-35.2 16-35.2 35.2s16 35.2 35.2 35.2 35.2-16 35.2-35.2-16-35.2-35.2-35.2zM539.2 472c0-19.2-16-35.2-35.2-35.2s-35.2 16-35.2 35.2 16 35.2 35.2 35.2 35.2-16 35.2-35.2zM736 660.8c0 19.2 16 35.2 35.2 35.2s35.2-16 35.2-35.2-16-35.2-35.2-35.2-35.2 16-35.2 35.2z" />
<glyph unicode="&#xed73;" glyph-name="cart" d="M936 836.8c-17.6 22.4-43.2 33.6-72 33.6h-580.8l-4.8 72c-1.6 25.6-22.4 44.8-48 44.8h-134.4c-16 0-28.8-11.2-28.8-27.2s12.8-28.8 28.8-28.8h128l35.2-585.6c1.6-35.2 32-64 67.2-64h540.8c16 0 28.8 12.8 28.8 28.8s-12.8 28.8-28.8 28.8h-540.8c-6.4 0-11.2 4.8-11.2 11.2l-6.4 110.4h507.2c43.2 0 81.6 30.4 89.6 72l49.6 227.2c4.8 27.2-1.6 54.4-19.2 76.8zM899.2 771.2l-49.6-227.2c-3.2-16-19.2-28.8-35.2-28.8h-510.4l-17.6 299.2h577.6c11.2 0 20.8-4.8 28.8-12.8 6.4-8 9.6-19.2 6.4-30.4zM379.2 198.4c-52.8 0-94.4-43.2-94.4-96s43.2-96 94.4-96 94.4 43.2 94.4 96-43.2 96-94.4 96zM379.2 64c-20.8 0-38.4 17.6-38.4 40s17.6 40 38.4 40c20.8 0 38.4-17.6 38.4-40s-17.6-40-38.4-40zM769.6 198.4c-52.8 0-94.4-43.2-94.4-96s43.2-96 94.4-96 94.4 43.2 94.4 96c1.6 52.8-41.6 96-94.4 96zM769.6 64c-20.8 0-38.4 17.6-38.4 40s17.6 40 38.4 40c20.8 0 38.4-17.6 38.4-40 1.6-22.4-16-40-38.4-40z" />
<glyph unicode="&#xed83;" glyph-name="attachment" d="M526.4 19.2h-8c-75.2 0-155.2 30.4-204.8 76.8-52.8 49.6-81.6 116.8-81.6 185.6v515.2c0 68.8 33.6 131.2 92.8 169.6 57.6 40 128 49.6 195.2 25.6l4.8-1.6c8-3.2 17.6-4.8 27.2-11.2 73.6-38.4 116.8-107.2 116.8-184v-438.4c0-43.2-14.4-83.2-41.6-113.6-4.8-6.4-8-9.6-11.2-11.2-28.8-27.2-64-41.6-102.4-41.6-43.2 0-86.4 19.2-113.6 52.8-27.2 32-41.6 72-41.6 115.2v368c0 16 12.8 28.8 28.8 28.8s28.8-12.8 28.8-28.8v-368c0-28.8 9.6-57.6 28.8-78.4 17.6-20.8 43.2-33.6 70.4-33.6 24 0 44.8 9.6 62.4 25.6 1.6 1.6 3.2 3.2 6.4 8 17.6 20.8 28.8 48 28.8 78.4v436.8c0 57.6-32 105.6-88 134.4l-1.6 1.6c-3.2 1.6-8 3.2-14.4 6.4l-4.8 1.6c-51.2 17.6-104 9.6-147.2-19.2s-67.2-72-67.2-123.2v-513.6c0-52.8 24-105.6 64-145.6 40-38.4 105.6-62.4 166.4-62.4 57.6-1.6 115.2 20.8 156.8 60.8s64 91.2 62.4 147.2v400c0 16 12.8 28.8 28.8 28.8s28.8-12.8 28.8-28.8v-398.4c1.6-68.8-27.2-136-80-187.2-54.4-49.6-121.6-78.4-190.4-78.4z" />
<glyph unicode="&#xed91;" glyph-name="tag" d="M928 830.4c-16 16-40 24-62.4 20.8l-172.8-24c-64 94.4-177.6 200-364.8 171.2-16-1.6-25.6-16-24-32s16-25.6 32-24c145.6 22.4 238.4-49.6 296-124.8l-113.6-16c-16-1.6-28.8-9.6-40-19.2l-380.8-356.8c-14.4-14.4-22.4-33.6-22.4-52.8 0-20.8 8-40 22.4-52.8l294.4-278.4c14.4-12.8 32-20.8 51.2-20.8s36.8 6.4 51.2 20.8l382.4 361.6c11.2 11.2 19.2 25.6 22.4 41.6l49.6 323.2c3.2 24-4.8 46.4-20.8 62.4zM892.8 776l-51.2-324.8c0-3.2-3.2-8-4.8-9.6l-382.4-361.6c-6.4-6.4-17.6-6.4-24 0l-294.4 280c-3.2 3.2-4.8 8-4.8 12.8s1.6 9.6 4.8 12.8l379.2 358.4c3.2 3.2 6.4 4.8 9.6 4.8l140.8 19.2c25.6-44.8 36.8-80 38.4-84.8 3.2-12.8 14.4-19.2 27.2-19.2 3.2 0 4.8 0 8 1.6 14.4 4.8 22.4 20.8 19.2 35.2 0 1.6-11.2 33.6-33.6 76.8l148.8 20.8h3.2c6.4 0 9.6-3.2 12.8-4.8 1.6-4.8 4.8-9.6 3.2-17.6z" />
<glyph unicode="&#xed95;" glyph-name="target" d="M371.2 99.2c-176 60.8-294.4 225.6-294.4 412.8 0 240 195.2 435.2 435.2 435.2 179.2 0 342.4-112 406.4-278.4 4.8-14.4 22.4-20.8 36.8-16s20.8 22.4 16 36.8c-73.6 187.2-257.6 313.6-459.2 313.6-272 0-491.2-219.2-491.2-491.2 0-211.2 134.4-398.4 332.8-465.6 3.2-1.6 6.4-1.6 9.6-1.6 11.2 0 22.4 8 27.2 19.2 3.2 14.4-4.8 30.4-19.2 35.2zM512 636.8c27.2 0 52.8-9.6 75.2-25.6 12.8-9.6 30.4-8 40 4.8s8 30.4-4.8 40c-32 24-68.8 36.8-108.8 36.8-97.6 0-177.6-80-177.6-177.6 0-40 12.8-78.4 38.4-108.8 4.8-6.4 14.4-11.2 22.4-11.2 6.4 0 12.8 1.6 17.6 6.4 12.8 9.6 14.4 27.2 4.8 40-17.6 20.8-25.6 48-25.6 75.2-3.2 65.6 51.2 120 118.4 120zM732.8 563.2c-150.4 0-272-121.6-272-272s121.6-272 272-272 272 121.6 272 272-123.2 272-272 272zM732.8 75.2c-118.4 0-216 97.6-216 216s97.6 216 216 216 216-97.6 216-216-97.6-216-216-216zM396.8 260.8c-99.2 44.8-163.2 145.6-163.2 254.4 0 153.6 124.8 278.4 278.4 278.4 108.8 0 209.6-64 254.4-164.8 6.4-14.4 22.4-20.8 36.8-14.4s20.8 22.4 14.4 36.8c-54.4 121.6-174.4 198.4-305.6 198.4-184 0-334.4-150.4-334.4-334.4 0-131.2 76.8-251.2 196.8-304 3.2-1.6 8-3.2 11.2-3.2 11.2 0 20.8 6.4 25.6 16 6.4 14.4 0 30.4-14.4 36.8zM817.6 361.6l-110.4-110.4-44.8 44.8c-11.2 11.2-28.8 11.2-40 0s-11.2-28.8 0-40l64-64c4.8-4.8 12.8-8 19.2-8s14.4 3.2 19.2 8l129.6 129.6c11.2 11.2 11.2 28.8 0 40s-25.6 11.2-36.8 0z" />
<glyph unicode="&#xedc1;" glyph-name="movie" d="M358.4 766.4c-60.8 0-110.4-49.6-110.4-110.4s49.6-110.4 110.4-110.4 110.4 49.6 110.4 110.4-48 110.4-110.4 110.4zM358.4 600c-30.4 0-54.4 24-54.4 54.4s24 54.4 54.4 54.4 54.4-24 54.4-54.4c1.6-30.4-24-54.4-54.4-54.4zM665.6 544c60.8 0 110.4 49.6 110.4 110.4s-49.6 110.4-110.4 110.4-110.4-49.6-110.4-110.4 48-110.4 110.4-110.4zM665.6 710.4c30.4 0 54.4-24 54.4-54.4s-24-54.4-54.4-54.4-54.4 24-54.4 54.4c-1.6 28.8 24 54.4 54.4 54.4zM358.4 480c-60.8 0-110.4-49.6-110.4-110.4s49.6-110.4 110.4-110.4 110.4 49.6 110.4 110.4-48 110.4-110.4 110.4zM358.4 313.6c-30.4 0-54.4 24-54.4 54.4s24 54.4 54.4 54.4 54.4-24 54.4-54.4-24-54.4-54.4-54.4zM665.6 257.6c60.8 0 110.4 49.6 110.4 110.4s-49.6 112-110.4 112-110.4-49.6-110.4-110.4 48-112 110.4-112zM665.6 424c30.4 0 54.4-24 54.4-54.4s-24-54.4-54.4-54.4-54.4 24-54.4 54.4 24 54.4 54.4 54.4zM976 75.2h-236.8c156.8 83.2 265.6 248 265.6 436.8 0 272-220.8 491.2-492.8 491.2s-491.2-219.2-491.2-491.2 219.2-492.8 491.2-492.8h464c16 0 28.8 12.8 28.8 28.8s-12.8 27.2-28.8 27.2zM76.8 512c0 240 195.2 435.2 435.2 435.2s436.8-195.2 436.8-435.2-196.8-436.8-436.8-436.8-435.2 196.8-435.2 436.8z" />
<glyph unicode="&#xefee;" glyph-name="podcast" d="M512 323.2c51.2 0 99.2 19.2 134.4 56 35.2 35.2 54.4 81.6 52.8 131.2v305.6c0 104-84.8 187.2-187.2 187.2-104 0-187.2-84.8-187.2-187.2v-304c-1.6-104 83.2-188.8 187.2-188.8zM379.2 816c0 72 59.2 131.2 131.2 131.2s131.2-59.2 131.2-131.2v-305.6c0-35.2-12.8-67.2-36.8-92.8-25.6-25.6-59.2-40-94.4-40-72 0-131.2 59.2-131.2 131.2v307.2zM843.2 520c0 16-12.8 28.8-28.8 28.8s-28.8-12.8-28.8-28.8c0-152-123.2-275.2-276.8-275.2-152 0-275.2 123.2-275.2 275.2 0 16-12.8 28.8-28.8 28.8s-28.8-12.8-28.8-28.8c0-172.8 132.8-315.2 302.4-329.6v-113.6h-112c-16 0-28.8-12.8-28.8-28.8s12.8-28.8 28.8-28.8h280c16 0 28.8 12.8 28.8 28.8s-12.8 28.8-28.8 28.8h-112v113.6c174.4 12.8 308.8 155.2 308.8 329.6z" />
</font>
</defs>
</svg>
