<?xml version="1.0" encoding="utf-8"?>
<svg viewBox="0 0 45.85 48.28" xmlns="http://www.w3.org/2000/svg"><g fill-rule="evenodd"><path d="m16 30.49a1.5 1.5 0 0 0 1 .4v8.55l-8.51-3.89v-.22z" fill="#586c7d"/><path d="m8.49 25h8.51v2.84a1.53 1.53 0 0 0 -1.43 1l-7.08 4.61z" fill="#41b5e7"/><path d="m23.76 34.48a1.75 1.75 0 0 0 1.75 1.73v7.12l-8.51-3.89v-8.55a1.52 1.52 0 0 0 1-.39z" fill="#2c3d48"/><path d="m17 19.43h8.51v13.28a1.67 1.67 0 0 0 -1.07.37l-6-4.14a1.54 1.54 0 0 0 -1.44-1.12z" fill="#0097d5"/><path d="m34 27.26v6.07l-3.76 8.23a3.61 3.61 0 0 1 -4.75 1.77v-7.12a1.75 1.75 0 0 0 1.76-1.75 1.27 1.27 0 0 0 0-.34z" fill="#071016"/><path d="m25.51 13.77h8.49v11.31l-7.74 7.81a1.69 1.69 0 0 0 -.78-.18z" fill="#006faa"/><path d="m14.17 6.08-10.63 23.27a5.16 5.16 0 0 0 2.54 6.8l18.8 8.59a5.14 5.14 0 0 0 6.79-2.54l10.63-23.28a5.13 5.13 0 0 0 -2.53-6.79l-18.77-8.59a5.16 5.16 0 0 0 -6.8 2.54zm-13.43 21.99 10.63-23.27a8.22 8.22 0 0 1 10.88-4.06l18.8 8.59a8.24 8.24 0 0 1 4.06 10.87l-10.63 23.28a8.23 8.23 0 0 1 -10.88 4.06l-18.8-8.54a8.22 8.22 0 0 1 -4.06-10.93z" fill="#071016"/><path d="m16 30.49a1.5 1.5 0 0 0 1 .4v8.55l-8.51-3.89v-.22z" fill="#586c7d"/><path d="m8.49 25h8.51v2.84a1.53 1.53 0 0 0 -1.43 1l-7.08 4.61z" fill="#94a3d3"/><path d="m23.76 34.48a1.75 1.75 0 0 0 1.75 1.73v7.12l-8.51-3.89v-8.55a1.52 1.52 0 0 0 1-.39z" fill="#2c3d48"/><path d="m17 19.43h8.51v13.28a1.67 1.67 0 0 0 -1.07.37l-6-4.14a1.54 1.54 0 0 0 -1.44-1.12z" fill="#7b8cc6"/><path d="m34 27.26v6.07l-3.76 8.23a3.61 3.61 0 0 1 -4.75 1.77v-7.12a1.75 1.75 0 0 0 1.76-1.75 1.27 1.27 0 0 0 0-.34z" fill="#071016"/><path d="m25.51 13.77h8.49v11.31l-7.74 7.81a1.69 1.69 0 0 0 -.78-.18z" fill="#656fb4"/></g></svg>